<svg id="b272b2b1-9663-4d49-9666-6423b657e4b6" data-name="Capa 1" xmlns="http://www.w3.org/2000/svg" viewBox="0 0 29.26 25.49"><defs><style>.bb8019b3-1646-4d79-a01c-4e350e44534b{fill:#282063;}</style></defs><path class="bb8019b3-1646-4d79-a01c-4e350e44534b" d="M5.83,22.26a1,1,0,0,1-.71-1.71l17.5-17.5a1,1,0,0,1,1.41,0,1,1,0,0,1,0,1.42L6.53,22A1,1,0,0,1,5.83,22.26Z"/><path class="bb8019b3-1646-4d79-a01c-4e350e44534b" d="M12.2,14.52a3.24,3.24,0,0,1-.73-2.09A3.34,3.34,0,0,1,16.9,9.82l1.24-1.25a5.11,5.11,0,0,0-7.2,7.2Z"/><path class="bb8019b3-1646-4d79-a01c-4e350e44534b" d="M8.16,18.55l1.29-1.29A18.34,18.34,0,0,1,6.61,15.2a25.68,25.68,0,0,1-2.54-2.57.23.23,0,0,1,0-.36A22,22,0,0,1,9.28,7.71,11.56,11.56,0,0,1,13.74,6,5.08,5.08,0,0,1,14.69,6a10.28,10.28,0,0,1,4.79,1.27l1.3-1.3A15.26,15.26,0,0,0,18.7,5a10.8,10.8,0,0,0-4.7-.7A12.71,12.71,0,0,0,8.68,6,23,23,0,0,0,2.3,11.67a1,1,0,0,0,0,1.56,24.8,24.8,0,0,0,3.21,3.35A20.91,20.91,0,0,0,8.16,18.55Z"/><path class="bb8019b3-1646-4d79-a01c-4e350e44534b" d="M27.32,11.63a25.59,25.59,0,0,0-3.18-3.32c-.29-.25-.61-.48-.92-.72L22,8.85a22,22,0,0,1,2.36,2.07c.43.44.86.9,1.26,1.37.1.12.11.19,0,.31a21.69,21.69,0,0,1-5.27,4.61,11.49,11.49,0,0,1-4.42,1.64,8.48,8.48,0,0,1-3.61-.33l-1.39,1.4,0,0a10.61,10.61,0,0,0,4.7.7A12.52,12.52,0,0,0,21,18.88a22.46,22.46,0,0,0,5.67-4.79,6.87,6.87,0,0,0,1.07-1.39v-.5A4.28,4.28,0,0,0,27.32,11.63Z"/><path class="bb8019b3-1646-4d79-a01c-4e350e44534b" d="M18.16,12.66A3.32,3.32,0,0,1,15,15.78l-1.58,1.58a5,5,0,0,0,1.36.2A5.12,5.12,0,0,0,20,12.46a5.1,5.1,0,0,0-.22-1.37Z"/></svg>