<?xml version="1.0" encoding="UTF-8"?>
<!DOCTYPE svg PUBLIC "-//W3C//DTD SVG 1.1//EN" "http://www.w3.org/Graphics/SVG/1.1/DTD/svg11.dtd">
<!-- Creator: CorelDRAW (Evaluation Version) -->
<svg xmlns="http://www.w3.org/2000/svg" xml:space="preserve" width="9.0882mm" height="5.8052mm" version="1.1" style="shape-rendering:geometricPrecision; text-rendering:geometricPrecision; image-rendering:optimizeQuality; fill-rule:evenodd; clip-rule:evenodd"
viewBox="0 0 70.16 44.81"
 xmlns:xlink="http://www.w3.org/1999/xlink"
 xmlns:xodm="http://www.corel.com/coreldraw/odm/2003">
 <defs>
  <style type="text/css">
   <![CDATA[
    .fil0 {fill:#282063;fill-rule:nonzero}
   ]]>
  </style>
 </defs>
 <g id="Capa_x0020_1">
  <metadata id="CorelCorpID_0Corel-Layer"/>
  <path class="fil0" d="M34.77 4.77c-0.6,-0.05 -1.6,0.06 -2.59,0.2 -4.39,0.6 -8.39,2.25 -12.15,4.54 -5.46,3.31 -10.07,7.6 -14.2,12.42 -0.33,0.38 -0.31,0.59 0.01,0.96 2.14,2.49 4.42,4.85 6.9,7.01 4.03,3.52 8.4,6.5 13.44,8.4 3.84,1.45 7.79,2.09 11.87,1.54 4.34,-0.58 8.31,-2.22 12.03,-4.47 5.53,-3.34 10.19,-7.67 14.36,-12.55 0.29,-0.34 0.27,-0.53 -0.01,-0.86 -1.1,-1.29 -2.25,-2.51 -3.43,-3.72 -3.65,-3.74 -7.66,-7.03 -12.25,-9.56 -4.23,-2.33 -8.69,-3.87 -14,-3.92zm35.39 18.32c-0.74,1.44 -1.86,2.59 -2.9,3.79 -4.47,5.15 -9.54,9.61 -15.46,13.04 -4.47,2.59 -9.23,4.38 -14.41,4.8 -4.41,0.36 -8.68,-0.33 -12.81,-1.9 -5.53,-2.09 -10.37,-5.31 -14.82,-9.16 -3.2,-2.77 -6.1,-5.83 -8.73,-9.14 -1.35,-1.69 -1.35,-2.56 0,-4.25 4.9,-6.13 10.57,-11.39 17.38,-15.36 4.49,-2.61 9.27,-4.41 14.48,-4.83 4.41,-0.35 8.68,0.34 12.81,1.9 5.53,2.09 10.37,5.31 14.82,9.16 3.17,2.74 6.03,5.76 8.65,9.03 0.39,0.48 0.72,1 1.01,1.54l0 1.37z"/>
  <path class="fil0" d="M44.26 22.43c0.01,-5.08 -4.04,-9.15 -9.11,-9.16 -5.08,-0.01 -9.16,4.03 -9.18,9.09 -0.02,5.11 4.04,9.19 9.14,9.19 5.07,0 9.14,-4.06 9.14,-9.12zm4.82 0.01c-0.18,7.9 -6.31,13.93 -13.99,13.9 -7.95,-0.04 -13.93,-6.32 -13.9,-13.96 0.04,-7.93 6.3,-13.93 13.96,-13.9 7.97,0.04 13.82,6.35 13.93,13.96z"/>
 </g>
</svg>
