<?xml version="1.0" encoding="UTF-8"?>
<!DOCTYPE svg PUBLIC "-//W3C//DTD SVG 1.1//EN" "http://www.w3.org/Graphics/SVG/1.1/DTD/svg11.dtd">
<!-- Creator: CorelDRAW (Evaluation Version) -->
<svg xmlns="http://www.w3.org/2000/svg" xml:space="preserve" width="18.0177mm" height="18.0178mm" version="1.1" style="shape-rendering:geometricPrecision; text-rendering:geometricPrecision; image-rendering:optimizeQuality; fill-rule:evenodd; clip-rule:evenodd"
viewBox="0 0 810.47 810.47"
 xmlns:xlink="http://www.w3.org/1999/xlink"
 xmlns:xodm="http://www.corel.com/coreldraw/odm/2003">
 <defs>
  <style type="text/css">
   <![CDATA[
    .fil0 {fill:#282063;fill-rule:nonzero}
    .fil1 {fill:#F6F6F6;fill-rule:nonzero}
   ]]>
  </style>
 </defs>
 <g id="Capa_x0020_1">
  <metadata id="CorelCorpID_0Corel-Layer"/>
  <path class="fil0" d="M810.47 405.24c0,223.81 -181.42,405.24 -405.23,405.24 -223.81,0 -405.24,-181.42 -405.24,-405.24 0,-223.81 181.42,-405.24 405.24,-405.24 223.81,0 405.23,181.42 405.23,405.24z"/>
  <path class="fil1" d="M404.7 551.28c55.94,0 111.89,0.02 167.83,-0.01 11.06,0 17.26,-5.91 17.28,-16.87 0.08,-60.45 0.08,-120.89 0,-181.33 -0.02,-10.92 -6.3,-16.97 -17.22,-17 -12.47,-0.04 -24.95,0.02 -37.42,-0.01 -20.88,-0.06 -36.94,-10.89 -44.76,-30.18 -4.8,-11.85 -9.6,-23.72 -14.28,-35.63 -2.96,-7.5 -8.29,-11.12 -16.35,-11.12 -36.37,0.05 -72.74,0.05 -109.11,0 -8.05,0 -13.39,3.62 -16.33,11.12 -4.73,12.08 -9.55,24.11 -14.47,36.1 -7.68,18.74 -23.85,29.61 -44.07,29.71 -11.95,0.04 -23.9,0 -35.85,0 -13.79,0.01 -19.33,5.46 -19.35,19.07 0,59.07 0,118.11 0,177.17 0.02,13.47 5.49,18.98 18.85,18.98 55.08,0 110.16,0 165.24,0zm0.54 30.97c-55.78,0 -111.54,0.05 -167.32,-0.01 -24.38,-0.03 -42.99,-15.19 -47.3,-38.37 -0.62,-3.38 -0.67,-6.89 -0.67,-10.35 -0.03,-59.92 -0.05,-119.86 -0.02,-179.79 0.03,-28.79 19.38,-48.27 48.13,-48.54 12.3,-0.13 24.61,-0.16 36.89,0.02 8.35,0.11 13.74,-3.65 16.74,-11.31 4.55,-11.59 9.19,-23.15 13.84,-34.69 8.08,-20.01 23.79,-30.83 45.38,-30.91 36.2,-0.13 72.41,-0.13 108.61,0 21.6,0.06 37.32,10.9 45.38,30.88 4.6,11.38 9.11,22.8 13.69,34.2 3.56,8.86 7.8,11.74 17.38,11.79 11.79,0.05 23.57,-0.03 35.34,0.02 29.83,0.11 49.19,19.37 49.21,49.05 0.03,59.59 0.03,119.17 0,178.76 -0.01,29.98 -19.41,49.25 -49.51,49.27 -55.26,0.02 -110.52,0 -165.78,0z"/>
  <path class="fil1" d="M328.35 412.67c-0.09,42.49 34.33,77.1 76.74,77.15 42.24,0.06 76.82,-34.21 77.02,-76.36 0.21,-42.51 -34.11,-77.25 -76.49,-77.4 -42.53,-0.14 -77.18,34.23 -77.28,76.61zm76.69 -107.48c59.12,-0.25 107.73,48.16 107.94,107.56 0.22,59.17 -48.19,107.76 -107.56,107.96 -59.17,0.21 -107.73,-48.18 -107.94,-107.57 -0.22,-59.17 48.11,-107.69 107.56,-107.94z"/>
 </g>
</svg>
