<?xml version="1.0" encoding="UTF-8"?>
<!DOCTYPE svg PUBLIC "-//W3C//DTD SVG 1.1//EN" "http://www.w3.org/Graphics/SVG/1.1/DTD/svg11.dtd">
<!-- Creator: CorelDRAW (Evaluation Version) -->
<svg xmlns="http://www.w3.org/2000/svg" xml:space="preserve" width="6.9795mm" height="8.8589mm" version="1.1" style="shape-rendering:geometricPrecision; text-rendering:geometricPrecision; image-rendering:optimizeQuality; fill-rule:evenodd; clip-rule:evenodd"
viewBox="0 0 10.75 13.64"
 xmlns:xlink="http://www.w3.org/1999/xlink"
 xmlns:xodm="http://www.corel.com/coreldraw/odm/2003">
 <defs>
  <style type="text/css">
   <![CDATA[
    .fil0 {fill:#F6F6F6;fill-rule:nonzero}
   ]]>
  </style>
 </defs>
 <g id="Capa_x0020_1">
  <metadata id="CorelCorpID_0Corel-Layer"/>
  <path class="fil0" d="M0.73 0.87l0 11.91c0.07,-0.02 0.13,-0.03 0.19,-0.05 1.81,-0.59 3.63,-1.18 5.44,-1.76 0.13,-0.04 0.16,-0.1 0.16,-0.23 -0.01,-0.8 -0,-1.6 -0,-2.4 -0,-0.16 0.04,-0.3 0.18,-0.38 0.24,-0.14 0.54,0.03 0.54,0.31 0.01,0.97 0,1.93 0,2.9 -0,0.2 -0.13,0.31 -0.31,0.37 -0.78,0.25 -1.56,0.51 -2.34,0.76 -1.32,0.43 -2.63,0.85 -3.95,1.28 -0.07,0.02 -0.15,0.05 -0.22,0.06 -0.22,0.03 -0.39,-0.11 -0.41,-0.33 -0.01,-0.05 -0,-0.11 -0,-0.16 0,-4.22 0,-8.43 0,-12.65 0,-0.02 0,-0.04 0,-0.05 0,-0.36 0.21,-0.52 0.55,-0.41 0.79,0.26 1.59,0.51 2.38,0.77 1.33,0.43 2.66,0.86 3.99,1.29 0.25,0.08 0.33,0.19 0.33,0.45 0,0.92 0,1.84 0,2.76 -0,0.26 -0.14,0.43 -0.35,0.43 -0.22,0 -0.37,-0.16 -0.37,-0.44 -0,-0.8 -0,-1.61 0,-2.41 0,-0.1 -0.02,-0.16 -0.13,-0.2 -1.84,-0.59 -3.67,-1.19 -5.51,-1.78 -0.04,-0.01 -0.09,-0.02 -0.15,-0.04z"/>
  <path class="fil0" d="M9.5 7.18l-0.25 0c-1.23,0 -2.46,0 -3.69,0 -0.06,0 -0.12,0 -0.18,-0.01 -0.19,-0.03 -0.32,-0.19 -0.31,-0.38 0.01,-0.18 0.15,-0.32 0.34,-0.33 0.19,-0.01 0.37,-0 0.56,-0 1.09,-0 2.19,-0 3.28,-0l0.23 0c-0.04,-0.05 -0.07,-0.09 -0.1,-0.12 -0.22,-0.23 -0.45,-0.45 -0.67,-0.68 -0.17,-0.17 -0.17,-0.4 -0.02,-0.54 0.15,-0.14 0.37,-0.13 0.53,0.03 0.47,0.46 0.94,0.93 1.4,1.4 0.18,0.18 0.17,0.38 -0,0.56 -0.46,0.47 -0.93,0.94 -1.4,1.4 -0.17,0.16 -0.38,0.17 -0.53,0.03 -0.15,-0.15 -0.15,-0.38 0.02,-0.55 0.25,-0.26 0.51,-0.51 0.8,-0.8z"/>
 </g>
</svg>
