<?xml version="1.0" encoding="UTF-8"?>
<!DOCTYPE svg PUBLIC "-//W3C//DTD SVG 1.1//EN" "http://www.w3.org/Graphics/SVG/1.1/DTD/svg11.dtd">
<!-- Creator: CorelDRAW (Evaluation Version) -->
<svg xmlns="http://www.w3.org/2000/svg" xml:space="preserve" width="5.7517mm" height="5.0105mm" version="1.1" style="shape-rendering:geometricPrecision; text-rendering:geometricPrecision; image-rendering:optimizeQuality; fill-rule:evenodd; clip-rule:evenodd"
viewBox="0 0 15.04 13.1"
 xmlns:xlink="http://www.w3.org/1999/xlink"
 xmlns:xodm="http://www.corel.com/coreldraw/odm/2003">
 <defs>
  <style type="text/css">
   <![CDATA[
    .fil0 {fill:#282063;fill-rule:nonzero}
   ]]>
  </style>
 </defs>
 <g id="Capa_x0020_1">
  <metadata id="CorelCorpID_0Corel-Layer"/>
  <path class="fil0" d="M7.52 6.55l0 -2.96c0,-0.68 0,-1.37 -0,-2.05 -0,-0.29 -0.17,-0.52 -0.44,-0.53 -0.14,-0 -0.31,0.06 -0.43,0.15 -1.01,0.72 -2.02,1.46 -3.03,2.19 -0.29,0.21 -0.61,0.33 -0.98,0.32 -0.36,-0 -0.72,-0 -1.08,0 -0.35,0 -0.55,0.2 -0.55,0.55 -0,1.55 -0,3.1 0,4.65 0,0.35 0.2,0.54 0.55,0.55 0.35,0 0.7,0.01 1.05,-0 0.38,-0.01 0.72,0.11 1.02,0.33 1,0.73 2.01,1.46 3.01,2.19 0.19,0.14 0.37,0.21 0.59,0.1 0.23,-0.11 0.28,-0.31 0.28,-0.55 -0,-1.65 -0,-3.29 -0,-4.94zm1.01 0.02c0,1.65 0,3.3 -0,4.96 -0,0.78 -0.46,1.38 -1.19,1.54 -0.43,0.09 -0.84,0.01 -1.2,-0.25 -1.01,-0.73 -2.03,-1.47 -3.03,-2.21 -0.17,-0.12 -0.34,-0.18 -0.55,-0.18 -0.38,0.01 -0.77,0.01 -1.15,-0.01 -0.76,-0.04 -1.38,-0.67 -1.39,-1.42 -0.01,-1.63 -0.01,-3.26 0,-4.89 0.01,-0.75 0.63,-1.37 1.38,-1.42 0.39,-0.02 0.78,-0.01 1.17,-0.01 0.2,0 0.37,-0.05 0.53,-0.17 1.01,-0.74 2.03,-1.49 3.05,-2.22 0.89,-0.64 2.1,-0.17 2.35,0.89 0.03,0.15 0.04,0.3 0.04,0.45 0,1.65 0,3.29 0,4.94z"/>
  <path class="fil0" d="M15.04 6.6c-0.05,1.5 -0.6,2.82 -1.88,3.76 -0.62,0.46 -1.33,0.7 -2.12,0.7 -0.29,0 -0.5,-0.2 -0.52,-0.47 -0.01,-0.28 0.18,-0.52 0.46,-0.52 1.41,0 2.55,-1.09 2.9,-2.46 0.33,-1.3 0.12,-2.5 -0.75,-3.54 -0.54,-0.64 -1.23,-0.99 -2.08,-1.02 -0.3,-0.01 -0.5,-0.18 -0.53,-0.44 -0.03,-0.31 0.19,-0.56 0.52,-0.56 0.99,0.01 1.84,0.37 2.55,1.05 0.99,0.94 1.42,2.12 1.45,3.51z"/>
  <path class="fil0" d="M13.28 6.56c-0.01,1.63 -1.32,2.97 -2.94,3 -0.36,0.01 -0.61,-0.25 -0.56,-0.58 0.04,-0.26 0.24,-0.42 0.54,-0.43 0.73,-0.03 1.29,-0.36 1.67,-0.99 0.78,-1.3 -0.14,-2.97 -1.65,-3.01 -0.36,-0.01 -0.59,-0.23 -0.57,-0.55 0.02,-0.28 0.25,-0.47 0.56,-0.46 1.31,0.02 2.48,0.93 2.83,2.2 0.04,0.16 0.07,0.32 0.09,0.48 0.02,0.11 0.01,0.23 0.02,0.34z"/>
 </g>
</svg>
