<?xml version="1.0" encoding="UTF-8"?>
<!DOCTYPE svg PUBLIC "-//W3C//DTD SVG 1.1//EN" "http://www.w3.org/Graphics/SVG/1.1/DTD/svg11.dtd">
<!-- Creator: CorelDRAW (Evaluation Version) -->
<svg xmlns="http://www.w3.org/2000/svg" xml:space="preserve" width="8.7145mm" height="8.7138mm" version="1.1" style="shape-rendering:geometricPrecision; text-rendering:geometricPrecision; image-rendering:optimizeQuality; fill-rule:evenodd; clip-rule:evenodd"
viewBox="0 0 12.92 12.92"
 xmlns:xlink="http://www.w3.org/1999/xlink"
 xmlns:xodm="http://www.corel.com/coreldraw/odm/2003">
 <defs>
  <style type="text/css">
   <![CDATA[
    .fil0 {fill:#F6F6F6;fill-rule:nonzero}
   ]]>
  </style>
 </defs>
 <g id="Capa_x0020_1">
  <metadata id="CorelCorpID_0Corel-Layer"/>
  <path class="fil0" d="M6.46 6.73c1.09,0 1.96,-0.87 1.97,-1.95 0,-1.09 -0.88,-1.97 -1.97,-1.97 -1.08,0 -1.96,0.88 -1.96,1.97 -0,1.08 0.87,1.96 1.96,1.96zm-0 5.63c0.28,-0.02 0.56,-0.04 0.83,-0.08 1.01,-0.13 1.92,-0.52 2.73,-1.14 0.05,-0.04 0.08,-0.12 0.08,-0.17 0,-0.16 -0.01,-0.31 -0.02,-0.47 -0.2,-1.68 -1.53,-2.99 -3.21,-3.18 -2.17,-0.24 -4.04,1.43 -4.06,3.6 -0,0.11 0.03,0.18 0.12,0.25 1.05,0.77 2.22,1.16 3.52,1.18zm-1.32 -5.42c-1.38,-0.89 -1.55,-2.66 -0.62,-3.78 0.91,-1.09 2.54,-1.22 3.61,-0.27 0.54,0.47 0.83,1.07 0.85,1.78 0.03,0.98 -0.4,1.73 -1.2,2.27 1.68,0.65 2.64,1.86 2.88,3.63 1.53,-1.5 2.22,-4.06 1.22,-6.42 -1,-2.36 -3.47,-3.91 -6.24,-3.53 -2.47,0.34 -4.58,2.25 -5.01,4.91 -0.15,0.92 -0.08,1.82 0.2,2.71 0.28,0.89 0.75,1.66 1.41,2.34 0.25,-1.8 1.21,-3 2.89,-3.64zm1.32 -6.94c3.56,-0 6.46,2.9 6.46,6.46 -0,3.57 -2.91,6.47 -6.47,6.46 -3.57,-0.01 -6.45,-2.9 -6.45,-6.46 -0,-3.56 2.9,-6.46 6.46,-6.46z"/>
 </g>
</svg>
