<?xml version="1.0" encoding="UTF-8"?>
<!DOCTYPE svg PUBLIC "-//W3C//DTD SVG 1.1//EN" "http://www.w3.org/Graphics/SVG/1.1/DTD/svg11.dtd">
<!-- Creator: CorelDRAW (Evaluation Version) -->
<svg xmlns="http://www.w3.org/2000/svg" xml:space="preserve" width="7.4047mm" height="6.9559mm" version="1.1" style="shape-rendering:geometricPrecision; text-rendering:geometricPrecision; image-rendering:optimizeQuality; clip-rule:evenodd"
viewBox="0 0 14.02 13.17"
 xmlns:xlink="http://www.w3.org/1999/xlink"
 xmlns:xodm="http://www.corel.com/coreldraw/odm/2003">
 <defs>
  <style type="text/css">
   
  </style>
 </defs>
 <g id="Capa_x0020_1">
  <metadata id="CorelCorpID_0Corel-Layer"/>
  <path class="fil0" d="M7.02 12.2c1.84,0 3.68,0 5.52,-0 0.38,0 0.51,-0.13 0.51,-0.52 0,-1.07 0,-2.14 -0.01,-3.21 -0,-0.1 -0.05,-0.22 -0.12,-0.29 -0.71,-0.72 -1.43,-1.44 -2.15,-2.15 -0.31,-0.31 -0.48,-0.31 -0.79,0 -1.27,1.27 -2.54,2.54 -3.81,3.81 -0.31,0.31 -0.55,0.31 -0.86,-0 -0.68,-0.68 -1.35,-1.35 -2.03,-2.03 -0.25,-0.25 -0.46,-0.25 -0.7,-0 -0.5,0.5 -1,1 -1.49,1.5 -0.07,0.07 -0.12,0.19 -0.12,0.29 -0.01,0.67 -0.01,1.34 -0.01,2.01 0,0.47 0.11,0.58 0.57,0.58 1.83,0 3.65,0 5.48,0zm6.02 -5.26c0.01,-0.08 0.02,-0.11 0.02,-0.14 0,-1.8 0,-3.6 -0,-5.39 0,-0.3 -0.15,-0.44 -0.48,-0.44 -3.7,-0 -7.4,-0 -11.11,-0 -0.37,0 -0.5,0.13 -0.5,0.5 -0,2.13 -0,4.25 0,6.38 0,0.06 0.01,0.12 0.02,0.21 0.35,-0.35 0.66,-0.67 0.98,-0.98 0.56,-0.54 1.36,-0.54 1.92,-0.01 0.2,0.19 0.39,0.38 0.58,0.57 0.42,0.42 0.84,0.85 1.31,1.31 0.06,-0.08 0.1,-0.16 0.15,-0.21 1.14,-1.15 2.29,-2.29 3.43,-3.44 0.21,-0.21 0.45,-0.37 0.75,-0.43 0.48,-0.09 0.91,0.03 1.25,0.38 0.55,0.55 1.09,1.1 1.68,1.69zm-6.03 6.23c-1.83,0 -3.67,0 -5.5,0 -0.94,-0 -1.5,-0.56 -1.5,-1.5 -0,-3.39 -0,-6.77 0,-10.16 0,-0.94 0.57,-1.5 1.51,-1.5 3.67,0 7.33,0 11,0 0.95,0 1.52,0.56 1.52,1.52 0,3.38 0,6.76 0,10.14 0,0.95 -0.56,1.51 -1.52,1.52 -1.83,0 -3.67,0 -5.5,0l0 -0z"/>
  <path class="fil0" d="M5.29 5.05c0.58,0 1.03,-0.45 1.03,-1.03 0,-0.57 -0.46,-1.03 -1.03,-1.04 -0.57,-0 -1.03,0.46 -1.03,1.03 -0,0.58 0.45,1.03 1.03,1.03zm-0 -3.02c1.1,-0.01 1.98,0.87 2,1.97 0.01,1.1 -0.88,2.01 -1.98,2.01 -1.09,0.01 -2,-0.9 -2,-2 0,-1.09 0.89,-1.98 1.99,-1.98z"/>
 </g>
</svg>
