<?xml version="1.0" encoding="UTF-8"?>
<!DOCTYPE svg PUBLIC "-//W3C//DTD SVG 1.1//EN" "http://www.w3.org/Graphics/SVG/1.1/DTD/svg11.dtd">
<!-- Creator: CorelDRAW (Evaluation Version) -->
<svg xmlns="http://www.w3.org/2000/svg" xml:space="preserve" width="8.7465mm" height="8.7461mm" version="1.1" style="shape-rendering:geometricPrecision; text-rendering:geometricPrecision; image-rendering:optimizeQuality; fill-rule:evenodd; clip-rule:evenodd"
viewBox="0 0 18.24 18.24"
 xmlns:xlink="http://www.w3.org/1999/xlink"
 xmlns:xodm="http://www.corel.com/coreldraw/odm/2003">
 <defs>
  <style type="text/css">
   <![CDATA[
    .fil0 {fill:#282063;fill-rule:nonzero}
    .fil1 {fill:#F6F6F6;fill-rule:nonzero}
   ]]>
  </style>
 </defs>
 <g id="Capa_x0020_1">
  <metadata id="CorelCorpID_0Corel-Layer"/>
  <path class="fil0" d="M18.24 9.12c0,5.04 -4.08,9.12 -9.12,9.12 -5.04,0 -9.12,-4.08 -9.12,-9.12 0,-5.04 4.08,-9.12 9.12,-9.12 5.04,0 9.12,4.08 9.12,9.12z"/>
  <path class="fil1" d="M12.57 7.42c0.23,-0.22 0.48,-0.43 0.7,-0.67 0.25,-0.28 0.22,-0.71 -0.04,-0.98 -0.24,-0.26 -0.5,-0.51 -0.75,-0.75 -0.27,-0.26 -0.7,-0.28 -0.97,-0.04 -0.25,0.22 -0.46,0.48 -0.68,0.7 0.58,0.58 1.17,1.17 1.75,1.75zm-2.44 -1.08c-0.02,0.01 -0.04,0.03 -0.06,0.05 -1.73,1.73 -3.45,3.45 -5.18,5.18 -0.04,0.04 -0.07,0.12 -0.07,0.19 -0.01,0.52 -0,1.04 -0,1.56 0,0.03 0.01,0.07 0.01,0.12l0.16 0c0.49,0 0.98,-0 1.46,0 0.11,0 0.19,-0.03 0.27,-0.11 1.69,-1.7 3.39,-3.4 5.09,-5.09 0.04,-0.04 0.1,-0.05 0.13,-0.07 -0.63,-0.63 -1.22,-1.22 -1.81,-1.82zm-6.23 6.32c0,-0.38 0,-0.75 -0,-1.13 -0,-0.18 0.06,-0.33 0.19,-0.45 2.22,-2.22 4.44,-4.44 6.66,-6.66 0.71,-0.71 1.73,-0.7 2.44,-0 0.22,0.21 0.43,0.43 0.64,0.64 0.7,0.71 0.71,1.73 0,2.44 -2.22,2.22 -4.44,4.44 -6.66,6.66 -0.13,0.13 -0.27,0.19 -0.45,0.19 -0.77,-0 -1.53,0 -2.3,-0 -0.33,-0 -0.52,-0.19 -0.52,-0.52 -0,-0.39 -0,-0.78 -0,-1.17z"/>
 </g>
</svg>
