<?xml version="1.0" encoding="UTF-8"?>
<!DOCTYPE svg PUBLIC "-//W3C//DTD SVG 1.1//EN" "http://www.w3.org/Graphics/SVG/1.1/DTD/svg11.dtd">
<!-- Creator: CorelDRAW (Evaluation Version) -->
<svg xmlns="http://www.w3.org/2000/svg" xml:space="preserve" width="7.6292mm" height="15.4624mm" version="1.1" style="shape-rendering:geometricPrecision; text-rendering:geometricPrecision; image-rendering:optimizeQuality; fill-rule:evenodd; clip-rule:evenodd"
viewBox="0 0 18.8 38.1"
 xmlns:xlink="http://www.w3.org/1999/xlink"
 xmlns:xodm="http://www.corel.com/coreldraw/odm/2003">
 <defs>
  <style type="text/css">
   <![CDATA[
    .fil0 {fill:#282063;fill-rule:nonzero}
   ]]>
  </style>
 </defs>
 <g id="Capa_x0020_1">
  <metadata id="CorelCorpID_0Corel-Layer"/>
  <path class="fil0" d="M14.04 12.46c0,2.54 0.01,5.07 -0,7.61 -0.01,2.41 -1.5,4.24 -3.77,4.7 -2.68,0.54 -5.36,-1.51 -5.49,-4.24 -0.06,-1.22 -0.02,-2.44 -0.02,-3.66 -0,-4.01 -0.01,-8.02 0,-12.04 0,-2.34 1.38,-4.15 3.55,-4.69 2.79,-0.7 5.63,1.36 5.71,4.24 0.07,2.69 0.02,5.39 0.02,8.09 0.01,0 0.01,0 0.02,0z"/>
  <path class="fil0" d="M8.27 29.74c-0.8,-0.23 -1.59,-0.4 -2.34,-0.68 -3.53,-1.36 -5.88,-4.75 -5.92,-8.53 -0.02,-2.08 -0.01,-4.15 -0.01,-6.23 0,-0.76 0.42,-1.24 1.07,-1.25 0.66,-0.01 1.11,0.49 1.11,1.27 0.01,1.97 -0,3.93 0,5.9 0.01,4.02 2.84,7.05 6.85,7.35 3.79,0.28 7.4,-2.9 7.52,-6.7 0.07,-2.09 0.02,-4.18 0.03,-6.28 0,-0.16 -0.01,-0.32 0.01,-0.48 0.06,-0.64 0.53,-1.08 1.12,-1.06 0.61,0.02 1.05,0.46 1.05,1.12 0.01,2.27 0.05,4.54 -0.02,6.8 -0.14,4.07 -3.49,7.81 -7.56,8.53 -0.22,0.04 -0.43,0.08 -0.68,0.12l0 6.26c0.17,0.01 0.34,0.03 0.5,0.03 1.39,0 2.79,-0.01 4.18,0.01 0.79,0.01 1.23,0.46 1.2,1.16 -0.03,0.53 -0.39,0.93 -0.91,1 -0.17,0.02 -0.35,0.02 -0.52,0.02 -3.69,0 -7.39,0 -11.08,0 -0.97,0 -1.47,-0.37 -1.47,-1.09 -0,-0.71 0.51,-1.1 1.47,-1.1 1.28,-0 2.57,-0 3.85,-0l0.54 0 0 -6.17z"/>
 </g>
</svg>
