<?xml version="1.0" encoding="UTF-8"?>
<!DOCTYPE svg PUBLIC "-//W3C//DTD SVG 1.1//EN" "http://www.w3.org/Graphics/SVG/1.1/DTD/svg11.dtd">
<!-- Creator: CorelDRAW (Evaluation Version) -->
<svg xmlns="http://www.w3.org/2000/svg" xml:space="preserve" width="19.0049mm" height="19.0049mm" version="1.1" style="shape-rendering:geometricPrecision; text-rendering:geometricPrecision; image-rendering:optimizeQuality; fill-rule:evenodd; clip-rule:evenodd"
viewBox="0 0 84.7 84.7"
 xmlns:xlink="http://www.w3.org/1999/xlink"
 xmlns:xodm="http://www.corel.com/coreldraw/odm/2003">
 <defs>
  <style type="text/css">
   <![CDATA[
    .fil1 {fill:#02BBDF;fill-rule:nonzero}
    .fil0 {fill:#282063;fill-rule:nonzero}
    .fil3 {fill:#338FC2;fill-rule:nonzero}
    .fil4 {fill:#376D80;fill-rule:nonzero}
    .fil8 {fill:#3B2645;fill-rule:nonzero}
    .fil2 {fill:#D5195C;fill-rule:nonzero}
    .fil5 {fill:#D6805B;fill-rule:nonzero}
    .fil7 {fill:#E31968;fill-rule:nonzero}
    .fil6 {fill:#EB9D80;fill-rule:nonzero}
    .fil9 {fill:white;fill-rule:nonzero}
   ]]>
  </style>
 </defs>
 <g id="Capa_x0020_1">
  <metadata id="CorelCorpID_0Corel-Layer"/>
  <path class="fil0" d="M84.7 42.35c0,23.39 -18.96,42.35 -42.35,42.35 -23.39,0 -42.35,-18.96 -42.35,-42.35 0,-23.39 18.96,-42.35 42.35,-42.35 23.39,0 42.35,18.96 42.35,42.35z"/>
  <path class="fil1" d="M81.3 42.35c0,21.51 -17.44,38.95 -38.95,38.95 -21.51,0 -38.95,-17.44 -38.95,-38.95 0,-21.51 17.44,-38.95 38.95,-38.95 21.51,0 38.95,17.44 38.95,38.95z"/>
  <path class="fil2" d="M58.47 54.46c0,0 9.58,1.11 10.7,13.45 0.08,0.88 0.15,1.7 0.21,2.48 -2.75,2.65 -5.89,4.91 -9.32,6.66l-1.59 -22.59z"/>
  <path class="fil3" d="M34.52 38.08c0,0 -2.89,-6.95 -1.2,-9.32 1.68,-2.36 5.88,-6.69 17.37,-4.05 0,0 2.88,3.88 1.72,11.08 0,0 -18.12,4.59 -17.88,2.29z"/>
  <path class="fil4" d="M35.35 36.78c0.25,-1 -1.51,-8.7 6.34,-14.71 2.47,-1.89 9.71,-2.41 14.5,-0.12 4.79,2.28 -3.79,13.84 -3.79,13.84 0,0 1.55,-3.92 -5.4,-5.55 -6.95,-1.63 -10.61,3.69 -9.96,7.08 0.65,3.39 -1.69,-0.54 -1.69,-0.54z"/>
  <path class="fil2" d="M32.75 55.87c0,0 -4.73,-3.59 0,-7.82 4.73,-4.23 9.73,-1.12 14.25,-1.02 4.51,0.09 6.97,-1.09 9.19,1.02 2.22,2.12 3.35,6.67 0.62,9.04 -2.73,2.37 -20.36,3.52 -24.05,-1.22z"/>
  <path class="fil5" d="M20.33 60.26c1.03,2.46 7.04,7.26 8.28,14.94 0.13,0.8 0.21,2.11 0.27,3.7 4.2,1.55 8.74,2.39 13.47,2.39 7.61,0 14.71,-2.18 20.71,-5.96 1.08,-8.93 1.25,-17.71 -1.83,-19.69 -3.32,-2.14 -9.79,-2.09 -9.79,-2.09l-0.2 -2.12 -0.49 -5.24c-7,1.43 -12.94,-3.81 -12.94,-3.81 0.24,1.25 1.64,11.45 1.64,11.45 -7.83,0.13 -17.09,4.19 -18.8,5.23 -0.33,0.21 -0.46,0.83 -0.32,1.18z"/>
  <path class="fil6" d="M52.14 31.09c1.06,1.11 1.15,3.58 1.24,6.33 0.27,8.3 -2.22,10.89 -6.46,11.35 -4.24,0.46 -8.68,-1.17 -9.59,-8.87 -0.46,-3.85 -0.94,-7.4 0.46,-9.07 2.09,-2.48 11.09,-3.13 14.35,0.26z"/>
  <path class="fil5" d="M46.16 39.77c0.36,-0.06 1.2,0.16 1.37,-0.23 0.14,-0.33 -0.44,-2.26 -0.53,-2.59 -0.3,-1.19 -0.61,-2 -0.84,-3.43 -0.01,-0.06 0.1,-0.1 0.13,-0.03 0.84,1.9 1.16,4.25 1.66,6.27 0.03,0.11 -0.05,0.23 -0.17,0.23 -0.53,-0.01 -1.05,0.1 -1.58,0.11 -0.18,0 -0.23,-0.29 -0.04,-0.32z"/>
  <path class="fil7" d="M24.62 56.09c0,0 -6.14,0.55 -10.19,13.41 3.56,3.66 7.84,6.63 12.61,8.67 0.37,-1.14 0.6,-1.83 0.6,-1.83 0,0 4.08,-16.25 -3.01,-20.25z"/>
  <path class="fil8" d="M50.05 37.55c0,0 0.72,0.27 0.61,-1 -0.1,-1.14 -0.61,-0.99 -0.61,-0.99 0,0 -0.5,-0 -0.42,1 0.08,1 0.42,1 0.42,1z"/>
  <path class="fil8" d="M42.78 37.55c0,0 0.72,0.27 0.61,-1 -0.1,-1.14 -0.61,-0.99 -0.61,-0.99 0,0 -0.5,-0 -0.42,1 0.08,1 0.42,1 0.42,1z"/>
  <path class="fil8" d="M49.26 33.69c0.51,-0.26 1.47,-0.33 1.85,0.2 0.07,0.1 -0.02,0.25 -0.14,0.24 -0.25,-0.01 -0.48,-0.14 -0.74,-0.16 -0.28,-0.02 -0.54,0.04 -0.8,0.12 -0.24,0.08 -0.4,-0.29 -0.17,-0.41z"/>
  <path class="fil8" d="M41.7 34.32c0.29,-0.73 1.57,-0.8 2.11,-0.35 0.12,0.1 0.05,0.3 -0.09,0.34 -0.32,0.1 -0.65,-0.02 -0.98,0.01 -0.29,0.03 -0.52,0.15 -0.79,0.25 -0.14,0.05 -0.31,-0.11 -0.25,-0.25z"/>
  <path class="fil7" d="M63.76 74.88c-0.06,-5.69 1.37,-14.52 -1.71,-18.44 -1.19,-1.51 -3.77,-2.22 -5.87,-2.54 -2.28,-0.56 -4.75,-0.34 -4.75,-0.34 0,0 2.16,7.68 -4.44,7.88 -6.6,0.21 -7.56,-7.59 -7.56,-7.59l-2.58 -0.04c-8.74,0.65 -14.6,3.11 -14.6,3.11 0,0 1.9,5.69 3.05,14.41 0.3,2.23 0.55,4.35 0.77,6.41 4.95,2.28 10.46,3.55 16.26,3.55 7.91,0 15.27,-2.36 21.41,-6.41z"/>
  <path class="fil2" d="M31.42 54.38c0,0 4.83,9.26 17.55,7.65 0,0 -10.93,-8.36 -10.22,-13.19 0,0 -6.82,-0.39 -7.33,5.54z"/>
  <path class="fil2" d="M51.34 52.49c0,0 0.71,5.55 -6.13,8.79 0,0 1.58,2.7 8.19,-1.12 6.61,-3.82 4.72,-8.76 4.72,-8.76l-6.79 1.1z"/>
  <path class="fil8" d="M35.35 37.1c0,0 -0.76,-4.75 3.25,-6.95 0,0 -1.8,5.69 -1.02,7.92l-2.22 -0.98z"/>
  <path class="fil6" d="M37.92 38.79c0,0 -1.3,-3.44 -3.35,-1.62 -2.05,1.82 0.82,7.12 3.95,6.73 0,0 0.4,-3.94 -0.6,-5.12z"/>
  <path class="fil5" d="M35.54 38.74c0.45,0.08 0.92,0.51 1.24,0.81 0.34,0.32 0.74,0.72 0.91,1.16 0.05,0.14 -0.14,0.22 -0.24,0.14 -0.26,-0.25 -0.48,-0.54 -0.72,-0.81 -0.18,0.19 -0.36,0.38 -0.6,0.47 -0.19,0.07 -0.33,-0.16 -0.25,-0.32 0.11,-0.2 0.3,-0.34 0.5,-0.47 -0.33,-0.25 -0.72,-0.45 -0.99,-0.74 -0.1,-0.11 0,-0.27 0.14,-0.24z"/>
  <path class="fil8" d="M38.58 39.57c0,0 1.14,2.9 2.8,2.42 1.66,-0.48 3.86,-1.6 5.67,-0.68 0,0 1.31,-0.68 2.26,-0.12 0.95,0.56 3.51,-0.1 4.09,-1.09 -0.04,0.89 -0.03,1.79 0.06,2.67 0.05,0.57 0.27,1.21 0.27,1.78 -0.01,0.57 -0.31,1.08 -0.4,1.63 -0.17,1 0.34,2.14 0.56,3.11 0.28,1.24 0.14,2.56 -0.45,3.69 -0.27,0.51 -0.62,0.99 -0.76,1.55 -0.32,1.29 0.2,2.71 -0.03,4.05 -0.23,1.3 -1.12,2.42 -2.18,3.21 -1.53,1.13 -3.63,1.67 -5.35,0.86 -1.97,-0.93 -2.84,-3.42 -2.44,-5.56 0.15,-0.79 0.43,-1.63 0.11,-2.36 -0.3,-0.7 -1.06,-1.09 -1.41,-1.76 -0.65,-1.22 0.26,-2.69 0.12,-4.06 -0.23,-2.29 -2.75,-3.51 -3.07,-5.86 -0.12,-0.89 -0.29,-2.11 -0.04,-3.01 0.01,-0.03 0.19,-0.45 0.19,-0.45z"/>
  <path class="fil9" d="M49.31 42.39c0,0 -2.46,0.89 -4.61,0.12 0,0 0.99,1.53 2.64,1.65 1.65,0.11 1.97,-1.77 1.97,-1.77z"/>
  <path class="fil2" d="M23.54 57.83c-0.19,-0.34 -0.79,-0.11 -0.64,0.27 1.24,3.05 2.44,6.09 3.23,9.3 0.79,3.2 1.11,6.46 1.6,9.71 0.06,0.42 0.69,0.29 0.7,-0.09 0.26,-6.46 -1.81,-13.55 -4.9,-19.19z"/>
  <path class="fil2" d="M38.02 79.38c-0.22,-1.06 -0.31,-2.32 -0.96,-3.21 -0.15,-0.21 -0.5,-0.2 -0.57,0.08 -0.26,0.98 0.05,2.03 0.2,3.01 0.08,0.52 0.13,1.09 0.22,1.65 0.49,0.07 0.99,0.13 1.49,0.18 -0.09,-0.58 -0.26,-1.16 -0.38,-1.72z"/>
  <path class="fil2" d="M47.24 69.58c-0.75,-0.56 -1.86,-0.37 -2.76,-0.35 -1.03,0.02 -2.05,0.11 -3.07,0.3 -0.37,0.07 -0.25,0.59 0.08,0.61 1.07,0.08 2.13,0.13 3.2,0.2 0.87,0.06 1.75,0.33 2.55,-0.08 0.29,-0.15 0.22,-0.53 0,-0.69z"/>
  <path class="fil2" d="M31.97 62.8c-0.51,-0.67 -1.07,-1.51 -1.82,-1.92 -0.18,-0.1 -0.41,0.06 -0.36,0.27 0.21,0.81 0.82,1.56 1.24,2.28 0.4,0.69 0.75,1.59 1.45,2.02 0.28,0.18 0.67,-0.05 0.67,-0.38 -0.02,-0.85 -0.69,-1.62 -1.18,-2.27z"/>
  <path class="fil2" d="M59.59 61.09c-0.04,-0.15 -0.3,-0.22 -0.37,-0.05 -0.65,1.55 -0.85,3.74 -0.82,5.4 0.01,0.71 1.18,0.93 1.29,0.17 0.24,-1.68 0.36,-3.88 -0.1,-5.53z"/>
  <path class="fil2" d="M58.39 77.85l-0.27 -0.35c-0.24,-0.3 -0.62,0.09 -0.49,0.38l0.11 0.26c0.22,-0.09 0.44,-0.19 0.65,-0.28z"/>
  <path class="fil2" d="M51.86 73.4c-0.53,0.6 -0.87,1.38 -1.27,2.07 -0.4,0.7 -0.82,1.39 -1.1,2.14 -0.12,0.33 0.37,0.61 0.59,0.35 0.52,-0.61 0.92,-1.31 1.34,-2 0.42,-0.68 0.93,-1.36 1.2,-2.11 0.15,-0.43 -0.47,-0.78 -0.77,-0.45z"/>
 </g>
</svg>
