<?xml version="1.0" encoding="UTF-8"?>
<!DOCTYPE svg PUBLIC "-//W3C//DTD SVG 1.1//EN" "http://www.w3.org/Graphics/SVG/1.1/DTD/svg11.dtd">
<!-- Creator: CorelDRAW (Evaluation Version) -->
<svg xmlns="http://www.w3.org/2000/svg" xml:space="preserve" width="6.4279mm" height="8.0809mm" version="1.1" style="shape-rendering:geometricPrecision; text-rendering:geometricPrecision; image-rendering:optimizeQuality; fill-rule:evenodd; clip-rule:evenodd"
viewBox="0 0 10.59 13.32"
 xmlns:xlink="http://www.w3.org/1999/xlink"
 xmlns:xodm="http://www.corel.com/coreldraw/odm/2003">
 <defs>
  <style type="text/css">
   <![CDATA[
    .fil0 {fill:#02BBDF;fill-rule:nonzero}
   ]]>
  </style>
 </defs>
 <g id="Capa_x0020_1">
  <metadata id="CorelCorpID_0Corel-Layer"/>
  <path class="fil0" d="M8.86 3.41c-0.58,-0.56 -1.11,-1.08 -1.68,-1.63 0,0.51 0,0.96 0,1.42 0,0.15 0.07,0.22 0.22,0.22 0.31,-0 0.61,-0 0.92,-0 0.16,0 0.33,0 0.54,0zm-2.7 -2.39l-0.19 0c-1.54,0 -3.09,0 -4.63,0 -0.26,0 -0.29,0.03 -0.29,0.29 -0,3.56 -0,7.12 0,10.68 0,0.26 0.03,0.29 0.29,0.29 2.65,0 5.3,0 7.95,0 0.25,0 0.29,-0.03 0.29,-0.29 0,-2.45 0,-4.91 0,-7.36l0 -0.19 -0.22 0c-0.65,0 -1.3,0 -1.95,-0 -0.72,-0 -1.23,-0.51 -1.24,-1.23 -0.01,-0.48 -0,-0.97 -0,-1.45 0,-0.24 0,-0.47 0,-0.74zm-6.15 5.62c0,-1.8 -0,-3.6 0,-5.39 0,-0.61 0.36,-1.08 0.93,-1.21 0.12,-0.03 0.25,-0.03 0.38,-0.03 1.64,-0 3.27,0 4.91,-0 0.42,-0 0.75,0.14 1.05,0.43 0.97,0.96 1.95,1.9 2.93,2.84 0.27,0.26 0.39,0.57 0.39,0.93 0,2.63 0,5.26 0,7.88 -0,0.71 -0.52,1.22 -1.24,1.23 -0.87,0.01 -1.74,0 -2.61,0 -1.8,0 -3.6,-0.02 -5.39,0.01 -0.84,0.01 -1.36,-0.6 -1.34,-1.35 0.02,-1.77 0.01,-3.55 0.01,-5.32z"/>
 </g>
</svg>
