<?xml version="1.0" encoding="UTF-8"?>
<!DOCTYPE svg PUBLIC "-//W3C//DTD SVG 1.1//EN" "http://www.w3.org/Graphics/SVG/1.1/DTD/svg11.dtd">
<!-- Creator: CorelDRAW (Evaluation Version) -->
<svg xmlns="http://www.w3.org/2000/svg" xml:space="preserve" width="39.8921mm" height="39.8921mm" version="1.1" style="shape-rendering:geometricPrecision; text-rendering:geometricPrecision; image-rendering:optimizeQuality; fill-rule:evenodd; clip-rule:evenodd"
viewBox="0 0 269.17 269.17"
 xmlns:xlink="http://www.w3.org/1999/xlink"
 xmlns:xodm="http://www.corel.com/coreldraw/odm/2003">
 <defs>
  <style type="text/css">
   <![CDATA[
    .fil0 {fill:#02BBDF;fill-rule:nonzero}
    .fil2 {fill:#338FC2;fill-rule:nonzero}
    .fil3 {fill:#376D80;fill-rule:nonzero}
    .fil7 {fill:#3B2645;fill-rule:nonzero}
    .fil1 {fill:#D5195C;fill-rule:nonzero}
    .fil4 {fill:#D6805B;fill-rule:nonzero}
    .fil6 {fill:#E31968;fill-rule:nonzero}
    .fil5 {fill:#EB9D80;fill-rule:nonzero}
    .fil8 {fill:white;fill-rule:nonzero}
   ]]>
  </style>
 </defs>
 <g id="Capa_x0020_1">
  <metadata id="CorelCorpID_0Corel-Layer"/>
  <path class="fil0" d="M269.17 134.58c0,74.33 -60.26,134.58 -134.58,134.58 -74.33,0 -134.58,-60.26 -134.58,-134.58 0,-74.33 60.26,-134.58 134.58,-134.58 74.33,0 134.58,60.26 134.58,134.58z"/>
  <path class="fil1" d="M190.29 176.42c0,0 33.11,3.85 36.99,46.46 0.28,3.04 0.52,5.88 0.73,8.56 -9.5,9.17 -20.35,16.95 -32.21,23.03l-5.51 -78.05z"/>
  <path class="fil2" d="M107.53 119.83c0,0 -9.97,-24.03 -4.16,-32.2 5.82,-8.17 20.32,-23.13 60.03,-13.98 0,0 9.95,13.39 5.92,38.28 0,0 -62.62,15.86 -61.79,7.91z"/>
  <path class="fil3" d="M110.41 115.33c0.85,-3.46 -5.22,-30.07 21.9,-50.83 8.53,-6.53 33.55,-8.31 50.09,-0.41 16.55,7.9 -13.09,47.84 -13.09,47.84 0,0 5.35,-13.53 -18.66,-19.16 -24.01,-5.64 -36.68,12.74 -34.41,24.45 2.26,11.72 -5.83,-1.88 -5.83,-1.88z"/>
  <path class="fil1" d="M101.43 181.31c0,0 -16.35,-12.4 0,-27.02 16.35,-14.62 33.63,-3.86 49.23,-3.54 15.6,0.32 24.07,-3.77 31.75,3.54 7.68,7.31 11.56,23.04 2.14,31.25 -9.42,8.2 -70.37,12.15 -83.11,-4.23z"/>
  <path class="fil4" d="M58.49 196.47c3.57,8.51 24.33,25.07 28.61,51.62 0.45,2.77 0.74,7.3 0.93,12.79 14.51,5.35 30.19,8.27 46.56,8.27 26.3,0 50.82,-7.55 71.55,-20.59 3.75,-30.86 4.33,-61.19 -6.33,-68.03 -11.47,-7.38 -33.82,-7.24 -33.82,-7.24l-0.68 -7.31 -1.69 -18.09c-24.2,4.94 -44.73,-13.18 -44.73,-13.18 0.83,4.33 5.66,39.58 5.66,39.58 -27.06,0.44 -59.05,14.46 -64.96,18.08 -1.15,0.71 -1.61,2.86 -1.09,4.08z"/>
  <path class="fil5" d="M168.43 95.69c3.67,3.82 3.97,12.39 4.28,21.86 0.93,28.68 -7.66,37.64 -22.31,39.22 -14.65,1.58 -29.98,-4.06 -33.13,-30.65 -1.58,-13.3 -3.26,-25.58 1.58,-31.33 7.21,-8.56 38.32,-10.82 49.59,0.9z"/>
  <path class="fil4" d="M147.75 125.69c1.26,-0.19 4.14,0.56 4.73,-0.79 0.49,-1.13 -1.53,-7.8 -1.81,-8.94 -1.03,-4.12 -2.11,-6.91 -2.89,-11.85 -0.03,-0.22 0.34,-0.34 0.44,-0.12 2.91,6.57 3.99,14.69 5.75,21.66 0.1,0.38 -0.19,0.79 -0.6,0.78 -1.84,-0.03 -3.63,0.36 -5.47,0.37 -0.61,0 -0.79,-1.01 -0.15,-1.11z"/>
  <path class="fil6" d="M73.32 182.08c0,0 -21.21,1.9 -35.2,46.34 12.31,12.65 27.09,22.89 43.56,29.94 1.28,-3.95 2.06,-6.32 2.06,-6.32 0,0 14.09,-56.15 -10.41,-69.96z"/>
  <path class="fil7" d="M161.2 118c0,0 2.48,0.92 2.1,-3.47 -0.34,-3.95 -2.1,-3.41 -2.1,-3.41 0,0 -1.72,-0.01 -1.46,3.44 0.26,3.45 1.46,3.44 1.46,3.44z"/>
  <path class="fil7" d="M136.07 118c0,0 2.48,0.92 2.1,-3.47 -0.34,-3.95 -2.1,-3.41 -2.1,-3.41 0,0 -1.72,-0.01 -1.46,3.44 0.26,3.45 1.46,3.44 1.46,3.44z"/>
  <path class="fil7" d="M158.48 104.67c1.78,-0.9 5.1,-1.15 6.39,0.7 0.24,0.34 -0.08,0.84 -0.47,0.82 -0.88,-0.05 -1.66,-0.47 -2.55,-0.55 -0.96,-0.08 -1.87,0.14 -2.78,0.43 -0.82,0.26 -1.38,-1.01 -0.59,-1.41z"/>
  <path class="fil7" d="M132.36 106.83c1.01,-2.52 5.41,-2.76 7.29,-1.2 0.43,0.35 0.15,1.03 -0.31,1.18 -1.1,0.34 -2.26,-0.07 -3.39,0.03 -1,0.09 -1.79,0.53 -2.72,0.85 -0.48,0.17 -1.06,-0.38 -0.87,-0.87z"/>
  <path class="fil6" d="M208.58 247c-0.19,-19.67 4.74,-50.18 -5.9,-63.71 -4.11,-5.23 -13.02,-7.65 -20.27,-8.79 -7.88,-1.93 -16.42,-1.19 -16.42,-1.19 0,0 7.48,26.53 -15.32,27.25 -22.8,0.72 -26.11,-26.24 -26.11,-26.24l-8.9 -0.14c-30.21,2.25 -50.46,10.77 -50.46,10.77 0,0 6.57,19.65 10.56,49.8 1.02,7.71 1.91,15.03 2.66,22.16 17.1,7.87 36.13,12.26 56.19,12.26 27.34,0 52.76,-8.16 74,-22.16z"/>
  <path class="fil1" d="M96.82 176.15c0,0 16.68,31.99 60.64,26.44 0,0 -37.77,-28.88 -35.31,-45.58 0,0 -23.57,-1.36 -25.33,19.14z"/>
  <path class="fil1" d="M165.64 169.64c0,0 2.46,19.16 -21.18,30.36 0,0 5.46,9.31 28.31,-3.87 22.85,-13.19 16.33,-30.28 16.33,-30.28l-23.46 3.79z"/>
  <path class="fil7" d="M110.41 116.45c0,0 -2.63,-16.42 11.23,-24 0,0 -6.21,19.65 -3.54,27.38l-7.69 -3.38z"/>
  <path class="fil5" d="M119.3 122.28c0,0 -4.48,-11.88 -11.56,-5.58 -7.07,6.3 2.82,24.59 13.64,23.26 0,0 1.37,-13.61 -2.08,-17.67z"/>
  <path class="fil4" d="M111.05 122.1c1.57,0.27 3.17,1.75 4.3,2.81 1.18,1.1 2.57,2.48 3.16,4.02 0.19,0.48 -0.49,0.78 -0.81,0.47 -0.92,-0.85 -1.65,-1.87 -2.51,-2.8 -0.61,0.66 -1.23,1.33 -2.08,1.64 -0.65,0.24 -1.13,-0.57 -0.85,-1.1 0.37,-0.69 1.05,-1.19 1.71,-1.64 -1.13,-0.87 -2.48,-1.55 -3.42,-2.56 -0.35,-0.39 0,-0.92 0.49,-0.84z"/>
  <path class="fil7" d="M121.56 124.99c0,0 3.94,10.02 9.67,8.36 5.74,-1.66 13.35,-5.54 19.59,-2.35 0,0 4.54,-2.35 7.81,-0.42 3.27,1.94 12.14,-0.35 14.15,-3.78 -0.16,3.07 -0.09,6.18 0.2,9.24 0.19,1.99 0.94,4.19 0.92,6.15 -0.02,1.95 -1.06,3.73 -1.37,5.64 -0.57,3.47 1.19,7.4 1.93,10.74 0.95,4.29 0.49,8.85 -1.55,12.77 -0.92,1.76 -2.15,3.41 -2.63,5.34 -1.12,4.45 0.71,9.37 -0.11,13.99 -0.79,4.51 -3.86,8.36 -7.54,11.09 -5.27,3.9 -12.56,5.78 -18.48,2.97 -6.8,-3.22 -9.8,-11.82 -8.42,-19.21 0.51,-2.73 1.49,-5.63 0.39,-8.17 -1.04,-2.4 -3.66,-3.78 -4.89,-6.08 -2.24,-4.2 0.91,-9.3 0.43,-14.04 -0.8,-7.91 -9.51,-12.14 -10.61,-20.25 -0.42,-3.09 -1.01,-7.3 -0.13,-10.39 0.03,-0.09 0.65,-1.57 0.65,-1.57z"/>
  <path class="fil8" d="M158.62 134.73c0,0 -8.51,3.06 -15.93,0.41 0,0 3.44,5.3 9.14,5.69 5.71,0.39 6.79,-6.11 6.79,-6.11z"/>
  <path class="fil1" d="M69.61 188.09c-0.64,-1.17 -2.74,-0.36 -2.22,0.93 4.29,10.56 8.42,21.06 11.17,32.15 2.74,11.06 3.83,22.32 5.53,33.56 0.22,1.44 2.39,1.01 2.44,-0.33 0.9,-22.34 -6.25,-46.82 -16.92,-66.31z"/>
  <path class="fil1" d="M119.62 262.54c-0.77,-3.65 -1.08,-8.01 -3.31,-11.08 -0.52,-0.72 -1.72,-0.71 -1.98,0.26 -0.9,3.37 0.17,7.03 0.71,10.41 0.28,1.78 0.44,3.78 0.76,5.72 1.7,0.24 3.41,0.45 5.13,0.63 -0.3,-2 -0.9,-4 -1.31,-5.94z"/>
  <path class="fil1" d="M151.48 228.67c-2.6,-1.92 -6.42,-1.27 -9.53,-1.2 -3.57,0.08 -7.1,0.39 -10.61,1.05 -1.27,0.24 -0.85,2.03 0.29,2.13 3.68,0.29 7.37,0.43 11.05,0.69 3,0.21 6.04,1.13 8.8,-0.27 1.02,-0.51 0.77,-1.82 0,-2.39z"/>
  <path class="fil1" d="M98.72 205.26c-1.76,-2.31 -3.68,-5.23 -6.28,-6.65 -0.64,-0.35 -1.42,0.23 -1.23,0.95 0.74,2.8 2.82,5.39 4.28,7.88 1.39,2.38 2.61,5.5 5.01,6.99 0.98,0.61 2.33,-0.18 2.3,-1.32 -0.07,-2.93 -2.37,-5.6 -4.08,-7.85z"/>
  <path class="fil1" d="M194.17 199.34c-0.15,-0.52 -1.02,-0.74 -1.27,-0.17 -2.26,5.35 -2.93,12.91 -2.83,18.67 0.04,2.44 4.07,3.22 4.45,0.6 0.84,-5.81 1.26,-13.41 -0.35,-19.1z"/>
  <path class="fil1" d="M190.02 257.25c-0.31,-0.41 -0.62,-0.81 -0.94,-1.21 -0.82,-1.05 -2.15,0.29 -1.7,1.31l0.39 0.89c0.75,-0.32 1.5,-0.65 2.24,-0.98z"/>
  <path class="fil1" d="M167.45 241.87c-1.83,2.07 -3.02,4.76 -4.38,7.15 -1.37,2.41 -2.83,4.79 -3.8,7.39 -0.43,1.14 1.27,2.1 2.05,1.19 1.81,-2.1 3.19,-4.54 4.64,-6.9 1.45,-2.35 3.22,-4.68 4.15,-7.29 0.53,-1.49 -1.62,-2.71 -2.65,-1.55z"/>
 </g>
</svg>
