<?xml version="1.0" encoding="UTF-8"?>
<!DOCTYPE svg PUBLIC "-//W3C//DTD SVG 1.1//EN" "http://www.w3.org/Graphics/SVG/1.1/DTD/svg11.dtd">
<!-- Creator: CorelDRAW (Evaluation Version) -->
<svg xmlns="http://www.w3.org/2000/svg" xml:space="preserve" width="4.3058mm" height="4.6298mm" version="1.1" style="shape-rendering:geometricPrecision; text-rendering:geometricPrecision; image-rendering:optimizeQuality; fill-rule:evenodd; clip-rule:evenodd"
viewBox="0 0 7.51 8.07"
 xmlns:xlink="http://www.w3.org/1999/xlink"
 xmlns:xodm="http://www.corel.com/coreldraw/odm/2003">
 <defs>
  <style type="text/css">
   <![CDATA[
    .fil0 {fill:#282063;fill-rule:nonzero}
   ]]>
  </style>
 </defs>
 <g id="Capa_x0020_1">
  <metadata id="CorelCorpID_0Corel-Layer"/>
  <path class="fil0" d="M0.56 3.53c0,0.91 0,1.81 0,2.72 0,0.19 0.05,0.24 0.24,0.24 1.62,0 3.24,0 4.86,0 0.19,0 0.24,-0.05 0.24,-0.24 0,-1.82 0,-3.63 0,-5.45 0,-0.19 -0.05,-0.24 -0.25,-0.24 -1.62,0 -3.24,0 -4.86,0 -0.19,0 -0.24,0.05 -0.24,0.24 0,0.91 0,1.82 0,2.72zm5.91 -0c0,0.91 0,1.83 0,2.74 0,0.47 -0.31,0.78 -0.78,0.78 -1.63,0 -3.27,0 -4.9,0 -0.47,0 -0.78,-0.31 -0.78,-0.78 0,-1.83 0,-3.66 0,-5.49 0,-0.47 0.31,-0.78 0.78,-0.78 1.64,-0 3.28,-0 4.91,0 0.46,0 0.77,0.31 0.77,0.77 0,0.92 0,1.84 0,2.76z"/>
  <path class="fil0" d="M7.51 4.43c0,0.95 0,1.9 0,2.85 -0,0.49 -0.31,0.79 -0.79,0.79 -1.73,0 -3.46,0 -5.2,-0 -0.2,0 -0.32,-0.09 -0.33,-0.25 -0.01,-0.14 0.07,-0.26 0.22,-0.29 0.05,-0.01 0.1,-0.01 0.15,-0.01 1.71,-0 3.42,0 5.13,-0 0.22,0 0.26,-0.04 0.26,-0.26 0,-1.89 0,-3.79 0,-5.68 0,-0.05 -0,-0.09 0.01,-0.14 0.03,-0.15 0.15,-0.24 0.29,-0.24 0.14,0.01 0.25,0.11 0.26,0.26 0,0.04 0,0.07 0,0.11 0,0.95 0,1.91 0,2.86z"/>
 </g>
</svg>
