<?xml version="1.0" encoding="UTF-8"?>
<!DOCTYPE svg PUBLIC "-//W3C//DTD SVG 1.1//EN" "http://www.w3.org/Graphics/SVG/1.1/DTD/svg11.dtd">
<!-- Creator: CorelDRAW (Evaluation Version) -->
<svg xmlns="http://www.w3.org/2000/svg" xml:space="preserve" width="19.5922mm" height="8.9557mm" version="1.1" style="shape-rendering:geometricPrecision; text-rendering:geometricPrecision; image-rendering:optimizeQuality; fill-rule:evenodd; clip-rule:evenodd"
viewBox="0 0 668.68 305.66"
 xmlns:xlink="http://www.w3.org/1999/xlink"
 xmlns:xodm="http://www.corel.com/coreldraw/odm/2003">
 <defs>
  <style type="text/css">
   <![CDATA[
    .str0 {stroke:#282063;stroke-width:12.04;stroke-miterlimit:10}
    .str1 {stroke:#F6F6F6;stroke-width:24.08;stroke-linecap:round;stroke-miterlimit:10}
    .fil0 {fill:none;fill-rule:nonzero}
    .fil1 {fill:#282063;fill-rule:nonzero}
   ]]>
  </style>
 </defs>
 <g id="Capa_x0020_1">
  <metadata id="CorelCorpID_0Corel-Layer"/>
  <path class="fil0 str0" d="M614.56 299.64l-560.44 0c-26.56,0 -48.1,-21.54 -48.1,-48.1l0 -197.42c0,-26.56 21.54,-48.09 48.1,-48.09l560.44 0c26.56,0 48.1,21.53 48.1,48.09l0 197.42c0,26.56 -21.54,48.1 -48.1,48.1z"/>
  <path class="fil1" d="M612.52 299.64l-185.97 0c-26.56,0 -48.1,-21.54 -48.1,-48.1l0 -197.42c0,-26.56 21.54,-48.09 48.1,-48.09l185.97 0c26.56,0 48.1,21.53 48.1,48.09l0 197.42c0,26.56 -21.54,48.1 -48.1,48.1z"/>
  <path class="fil1" d="M190.94 232.68c23.25,0 46.5,0.01 69.74,0 4.84,-0.01 6.46,-1.65 6.46,-6.51 0.01,-13.51 0.05,-27.03 -0.06,-40.54 -0.01,-1.27 -0.64,-2.83 -1.53,-3.72 -8.96,-9.13 -18.04,-18.15 -27.09,-27.19 -3.9,-3.89 -6.12,-3.89 -10.02,0.01 -16.05,16.05 -32.1,32.11 -48.16,48.17 -3.91,3.91 -6.92,3.91 -10.85,-0.01 -8.55,-8.53 -17.07,-17.09 -25.62,-25.61 -3.11,-3.1 -5.77,-3.11 -8.84,-0.05 -6.32,6.3 -12.66,12.58 -18.87,18.98 -0.88,0.9 -1.53,2.44 -1.54,3.71 -0.13,8.46 -0.07,16.93 -0.07,25.41 0,6 1.34,7.35 7.24,7.35 23.07,0 46.14,0 69.21,0zm76 -66.46c0.12,-1.07 0.2,-1.42 0.2,-1.76 0,-22.71 0.02,-45.4 -0.01,-68.11 -0.01,-3.83 -1.93,-5.54 -6.03,-5.54 -46.75,-0.02 -93.5,-0.04 -140.27,-0.05 -4.66,0 -6.32,1.7 -6.32,6.38 -0.01,26.84 -0.01,53.69 0,80.53 0,0.75 0.12,1.48 0.22,2.7 4.38,-4.39 8.32,-8.47 12.4,-12.42 7.05,-6.83 17.13,-6.88 24.3,-0.15 2.49,2.34 4.86,4.82 7.28,7.24 5.32,5.36 10.66,10.72 16.51,16.6 0.73,-1.05 1.2,-1.96 1.9,-2.66 14.44,-14.48 28.91,-28.94 43.34,-43.42 2.67,-2.67 5.68,-4.71 9.44,-5.43 6.12,-1.19 11.44,0.41 15.84,4.79 6.95,6.91 13.84,13.9 21.19,21.3zm-76.2 78.66c-23.14,0 -46.29,0 -69.45,0 -11.86,0 -19,-7.13 -19,-19 -0.01,-42.78 -0.01,-85.57 0,-128.35 0,-11.86 7.15,-18.96 19.05,-18.96 46.29,0 92.59,0 138.88,0 12.05,0 19.14,7.08 19.14,19.14 0,42.7 0,85.38 0,128.07 0,12.02 -7.14,19.12 -19.18,19.13 -23.15,0 -46.29,0 -69.45,0l0 -0.04z"/>
  <path class="fil1" d="M169.12 142.39c7.26,0.02 13.05,-5.72 13.05,-12.97 0.01,-7.23 -5.78,-13.05 -12.98,-13.08 -7.23,-0.01 -13.03,5.78 -13.04,13.01 0,7.3 5.68,13 12.97,13.03zm-0.06 -38.11c13.91,-0.07 25.06,10.94 25.23,24.9 0.17,13.89 -11.1,25.33 -25.04,25.42 -13.83,0.09 -25.31,-11.39 -25.28,-25.25 0.03,-13.82 11.23,-25.01 25.1,-25.07z"/>
  <line class="fil0 str1" x1="596.91" y1="148.85" x2="442.15" y2= "148.85" />
  <line class="fil0 str1" x1="519.53" y1="71.46" x2="519.53" y2= "226.23" />
 </g>
</svg>
