<?xml version="1.0" encoding="UTF-8"?>
<!DOCTYPE svg PUBLIC "-//W3C//DTD SVG 1.1//EN" "http://www.w3.org/Graphics/SVG/1.1/DTD/svg11.dtd">
<!-- Creator: CorelDRAW (Evaluation Version) -->
<svg xmlns="http://www.w3.org/2000/svg" xml:space="preserve" width="4.8598mm" height="4.8609mm" version="1.1" style="shape-rendering:geometricPrecision; text-rendering:geometricPrecision; image-rendering:optimizeQuality; fill-rule:evenodd; clip-rule:evenodd"
viewBox="0 0 5.63 5.63"
 xmlns:xlink="http://www.w3.org/1999/xlink"
 xmlns:xodm="http://www.corel.com/coreldraw/odm/2003">
 <defs>
  <style type="text/css">
   <![CDATA[
    .fil0 {fill:#9D9D9C;fill-rule:nonzero}
   ]]>
  </style>
 </defs>
 <g id="Capa_x0020_1">
  <metadata id="CorelCorpID_0Corel-Layer"/>
  <path class="fil0" d="M2.81 3.83c0.56,0 1.02,-0.46 1.02,-1.02 -0,-0.56 -0.46,-1.01 -1.01,-1.02 -0.56,-0 -1.02,0.45 -1.02,1.01 -0,0.56 0.45,1.02 1.02,1.02zm0 -2.44c0.78,-0 1.42,0.64 1.42,1.42 0,0.78 -0.63,1.42 -1.42,1.42 -0.78,0 -1.42,-0.64 -1.42,-1.42 0,-0.78 0.64,-1.42 1.42,-1.42z"/>
  <path class="fil0" d="M2.61 0.49c0,-0.09 -0,-0.18 0,-0.27 0,-0.13 0.09,-0.22 0.2,-0.22 0.12,0 0.2,0.09 0.2,0.22 0,0.18 0,0.37 0,0.55 -0,0.13 -0.09,0.22 -0.2,0.22 -0.12,0 -0.2,-0.09 -0.21,-0.22 -0,-0.09 0,-0.19 0,-0.28z"/>
  <path class="fil0" d="M3.02 5.13c0,0.09 0,0.19 -0,0.28 -0,0.13 -0.09,0.22 -0.21,0.21 -0.11,-0 -0.2,-0.09 -0.2,-0.21 -0,-0.19 -0,-0.38 0,-0.56 0,-0.12 0.09,-0.21 0.2,-0.21 0.11,0 0.2,0.09 0.2,0.21 0,0 0,0.01 0,0.01 0,0.09 0,0.18 0,0.27z"/>
  <path class="fil0" d="M1.35 1.58c-0.02,-0.01 -0.08,-0.03 -0.11,-0.06 -0.14,-0.13 -0.27,-0.27 -0.41,-0.4 -0.08,-0.08 -0.08,-0.21 -0.01,-0.29 0.08,-0.08 0.2,-0.08 0.29,0 0.14,0.13 0.27,0.27 0.4,0.4 0.06,0.07 0.08,0.14 0.05,0.23 -0.04,0.08 -0.1,0.12 -0.21,0.12z"/>
  <path class="fil0" d="M4.86 1c-0.01,0.02 -0.03,0.08 -0.06,0.11 -0.13,0.14 -0.27,0.27 -0.4,0.41 -0.09,0.08 -0.21,0.08 -0.29,0 -0.08,-0.08 -0.08,-0.2 0.01,-0.29 0.13,-0.14 0.27,-0.27 0.4,-0.4 0.07,-0.07 0.15,-0.08 0.23,-0.05 0.08,0.04 0.12,0.1 0.12,0.21z"/>
  <path class="fil0" d="M0.75 4.66c0.02,-0.05 0.04,-0.1 0.07,-0.14 0.13,-0.14 0.27,-0.27 0.41,-0.41 0.09,-0.09 0.21,-0.08 0.29,-0 0.08,0.08 0.08,0.2 -0.01,0.29 -0.13,0.14 -0.27,0.27 -0.41,0.41 -0.06,0.06 -0.14,0.08 -0.23,0.04 -0.08,-0.03 -0.12,-0.1 -0.13,-0.19z"/>
  <path class="fil0" d="M4.87 4.66c-0.01,0.09 -0.05,0.15 -0.12,0.18 -0.08,0.04 -0.15,0.03 -0.22,-0.03 -0.15,-0.14 -0.29,-0.29 -0.44,-0.44 -0.07,-0.08 -0.07,-0.2 0.01,-0.27 0.07,-0.07 0.19,-0.09 0.26,-0.02 0.16,0.15 0.31,0.3 0.46,0.46 0.03,0.03 0.03,0.08 0.05,0.12z"/>
  <path class="fil0" d="M5.13 2.61c0.1,0 0.19,-0 0.29,0 0.12,0 0.21,0.08 0.21,0.2 0,0.11 -0.08,0.2 -0.2,0.2 -0.2,0 -0.39,0 -0.59,0 -0.12,-0 -0.2,-0.09 -0.2,-0.2 0,-0.11 0.09,-0.2 0.21,-0.2 0.1,-0 0.19,-0 0.29,-0z"/>
  <path class="fil0" d="M0.49 2.61c0.1,0 0.19,-0 0.29,0 0.12,0 0.21,0.08 0.21,0.2 0,0.11 -0.08,0.2 -0.2,0.2 -0.2,0 -0.39,0 -0.59,0 -0.12,-0 -0.2,-0.09 -0.2,-0.2 0,-0.11 0.09,-0.2 0.21,-0.2 0.1,-0 0.19,-0 0.29,-0z"/>
 </g>
</svg>
