<?xml version="1.0" encoding="UTF-8"?>
<!DOCTYPE svg PUBLIC "-//W3C//DTD SVG 1.1//EN" "http://www.w3.org/Graphics/SVG/1.1/DTD/svg11.dtd">
<!-- Creator: CorelDRAW (Evaluation Version) -->
<svg xmlns="http://www.w3.org/2000/svg" xml:space="preserve" width="10.5213mm" height="11.2433mm" version="1.1" style="shape-rendering:geometricPrecision; text-rendering:geometricPrecision; image-rendering:optimizeQuality; fill-rule:evenodd; clip-rule:evenodd"
viewBox="0 0 33.03 35.3"
 xmlns:xlink="http://www.w3.org/1999/xlink"
 xmlns:xodm="http://www.corel.com/coreldraw/odm/2003">
 <defs>
  <style type="text/css">
   <![CDATA[
    .fil0 {fill:#F6F6F6;fill-rule:nonzero}
   ]]>
  </style>
 </defs>
 <g id="Capa_x0020_1">
  <metadata id="CorelCorpID_0Corel-Layer"/>
  <path class="fil0" d="M10.17 35.3c-5.91,0.01 -10.59,-5 -10.14,-10.89 0.19,-2.5 1.19,-4.66 2.97,-6.44 5.83,-5.84 11.67,-11.67 17.5,-17.5 0.59,-0.59 1.38,-0.62 1.9,-0.09 0.52,0.53 0.47,1.3 -0.13,1.9 -5.78,5.78 -11.56,11.57 -17.35,17.35 -1.73,1.73 -2.51,3.8 -2.34,6.24 0.24,3.42 3.21,6.48 6.63,6.83 2.53,0.26 4.67,-0.52 6.46,-2.31 4.46,-4.46 8.92,-8.91 13.37,-13.38 1.3,-1.3 1.75,-2.87 1.25,-4.64 -0.48,-1.68 -1.61,-2.78 -3.31,-3.21 -1.66,-0.42 -3.15,-0 -4.39,1.18 -0.93,0.89 -1.82,1.82 -2.73,2.73 -3.66,3.66 -7.32,7.32 -10.98,10.98 -0.51,0.51 -0.76,1.07 -0.56,1.78 0.33,1.18 1.73,1.62 2.68,0.85 0.13,-0.11 0.25,-0.23 0.37,-0.35 4,-4 8.01,-8.01 12.01,-12.01 0.71,-0.71 1.47,-0.8 2.03,-0.25 0.57,0.56 0.49,1.34 -0.24,2.06 -4.03,4.03 -8.06,8.07 -12.1,12.1 -1.53,1.53 -3.59,1.82 -5.32,0.77 -2.24,-1.36 -2.72,-4.42 -1,-6.39 0.1,-0.12 0.21,-0.23 0.32,-0.34 4.54,-4.54 9.07,-9.08 13.62,-13.62 2.66,-2.66 6.72,-2.92 9.6,-0.63 3.38,2.69 3.69,7.62 0.64,10.72 -3.2,3.24 -6.44,6.45 -9.67,9.68 -1.29,1.29 -2.58,2.59 -3.88,3.88 -1.99,1.97 -4.47,3 -7.2,3.01z"/>
 </g>
</svg>
