<?xml version="1.0" encoding="UTF-8"?>
<!DOCTYPE svg PUBLIC "-//W3C//DTD SVG 1.1//EN" "http://www.w3.org/Graphics/SVG/1.1/DTD/svg11.dtd">
<!-- Creator: CorelDRAW (Evaluation Version) -->
<svg xmlns="http://www.w3.org/2000/svg" xml:space="preserve" width="8.506mm" height="6.9937mm" version="1.1" style="shape-rendering:geometricPrecision; text-rendering:geometricPrecision; image-rendering:optimizeQuality; fill-rule:evenodd; clip-rule:evenodd"
viewBox="0 0 18.45 15.17"
 xmlns:xlink="http://www.w3.org/1999/xlink"
 xmlns:xodm="http://www.corel.com/coreldraw/odm/2003">
 <defs>
  <style type="text/css">
   <![CDATA[
    .fil0 {fill:#282063;fill-rule:nonzero}
   ]]>
  </style>
 </defs>
 <g id="Capa_x0020_1">
  <metadata id="CorelCorpID_0Corel-Layer"/>
  <path class="fil0" d="M9.2 13.84c2.4,0 4.79,0 7.19,-0 0.47,0 0.74,-0.25 0.74,-0.72 0,-2.59 0,-5.18 0,-7.77 0,-0.47 -0.27,-0.73 -0.74,-0.73 -0.53,-0 -1.07,0 -1.6,-0 -0.89,-0 -1.58,-0.47 -1.92,-1.29 -0.21,-0.51 -0.41,-1.02 -0.61,-1.53 -0.13,-0.32 -0.35,-0.48 -0.7,-0.48 -1.56,0 -3.12,0 -4.67,0 -0.35,0 -0.57,0.15 -0.7,0.48 -0.2,0.52 -0.41,1.03 -0.62,1.55 -0.33,0.8 -1.02,1.27 -1.89,1.27 -0.51,0 -1.02,0 -1.54,0 -0.59,0 -0.83,0.23 -0.83,0.82 -0,2.53 -0,5.06 0,7.59 0,0.58 0.23,0.81 0.81,0.81 2.36,0 4.72,0 7.08,0zm0.02 1.33c-2.39,0 -4.78,0 -7.17,-0 -1.04,-0 -1.84,-0.65 -2.03,-1.64 -0.03,-0.14 -0.03,-0.3 -0.03,-0.44 -0,-2.57 -0,-5.14 0,-7.7 0,-1.23 0.83,-2.07 2.06,-2.08 0.53,-0 1.05,-0.01 1.58,0 0.36,0.01 0.59,-0.16 0.72,-0.48 0.2,-0.5 0.39,-0.99 0.59,-1.49 0.35,-0.86 1.02,-1.32 1.94,-1.32 1.55,-0.01 3.1,-0.01 4.65,0 0.93,0 1.6,0.47 1.94,1.32 0.2,0.49 0.39,0.98 0.59,1.46 0.15,0.38 0.33,0.5 0.75,0.5 0.5,0 1.01,-0 1.51,0 1.28,0 2.11,0.83 2.11,2.1 0,2.55 0,5.11 0,7.66 0,1.28 -0.83,2.11 -2.12,2.11 -2.37,0 -4.74,0 -7.1,0z"/>
  <path class="fil0" d="M5.93 7.9c-0,1.82 1.47,3.3 3.29,3.31 1.81,0 3.29,-1.47 3.3,-3.27 0.01,-1.82 -1.46,-3.31 -3.28,-3.32 -1.82,-0.01 -3.31,1.47 -3.31,3.28zm3.29 -4.6c2.53,-0.01 4.62,2.06 4.62,4.61 0.01,2.53 -2.07,4.62 -4.61,4.62 -2.54,0.01 -4.61,-2.06 -4.62,-4.61 -0.01,-2.54 2.06,-4.61 4.61,-4.62z"/>
 </g>
</svg>
