<?xml version="1.0" encoding="UTF-8"?>
<!DOCTYPE svg PUBLIC "-//W3C//DTD SVG 1.1//EN" "http://www.w3.org/Graphics/SVG/1.1/DTD/svg11.dtd">
<!-- Creator: CorelDRAW (Evaluation Version) -->
<svg xmlns="http://www.w3.org/2000/svg" xml:space="preserve" width="2.6165mm" height="5.2352mm" version="1.1" style="shape-rendering:geometricPrecision; text-rendering:geometricPrecision; image-rendering:optimizeQuality; fill-rule:evenodd; clip-rule:evenodd"
viewBox="0 0 1.26 2.53"
 xmlns:xlink="http://www.w3.org/1999/xlink"
 xmlns:xodm="http://www.corel.com/coreldraw/odm/2003">
 <defs>
  <style type="text/css">
   <![CDATA[
    .fil0 {fill:#02BBDF;fill-rule:nonzero}
   ]]>
  </style>
 </defs>
 <g id="Capa_x0020_1">
  <metadata id="CorelCorpID_0Corel-Layer"/>
  <path class="fil0" d="M0.71 2.53c-0.04,-0.05 -0.09,-0.09 -0.13,-0.14 0.31,-0.31 0.49,-0.68 0.5,-1.12 0.01,-0.44 -0.14,-0.82 -0.43,-1.15 0.04,-0.04 0.09,-0.08 0.14,-0.13 0.31,0.33 0.48,0.72 0.49,1.18 0.01,0.53 -0.18,0.98 -0.56,1.35z"/>
  <path class="fil0" d="M0.31 0.51c0.05,-0.04 0.09,-0.09 0.13,-0.13 0.45,0.44 0.48,1.26 -0.05,1.75 -0.04,-0.04 -0.08,-0.09 -0.13,-0.14 0.21,-0.2 0.32,-0.45 0.33,-0.74 0.01,-0.29 -0.09,-0.54 -0.29,-0.75z"/>
  <path class="fil0" d="M0.13 1.78c-0.04,-0.05 -0.08,-0.09 -0.13,-0.14 0.11,-0.11 0.16,-0.23 0.17,-0.38 0,-0.15 -0.05,-0.28 -0.15,-0.39 0.04,-0.04 0.09,-0.08 0.13,-0.13 0.25,0.24 0.3,0.73 -0.03,1.03z"/>
 </g>
</svg>
