<?xml version="1.0" encoding="UTF-8"?>
<!DOCTYPE svg PUBLIC "-//W3C//DTD SVG 1.1//EN" "http://www.w3.org/Graphics/SVG/1.1/DTD/svg11.dtd">
<!-- Creator: CorelDRAW (Evaluation Version) -->
<svg xmlns="http://www.w3.org/2000/svg" xml:space="preserve" width="15.1335mm" height="15.1336mm" version="1.1" style="shape-rendering:geometricPrecision; text-rendering:geometricPrecision; image-rendering:optimizeQuality; fill-rule:evenodd; clip-rule:evenodd"
viewBox="0 0 39.24 39.24"
 xmlns:xlink="http://www.w3.org/1999/xlink"
 xmlns:xodm="http://www.corel.com/coreldraw/odm/2003">
 <defs>
  <style type="text/css">
   <![CDATA[
    .str0 {stroke:black;stroke-width:0.91;stroke-miterlimit:10}
    .str1 {stroke:#F3B83A;stroke-width:0.91;stroke-miterlimit:10}
    .fil11 {fill:none;fill-rule:nonzero}
    .fil4 {fill:#201616;fill-rule:nonzero}
    .fil5 {fill:#794549;fill-rule:nonzero}
    .fil10 {fill:#796A80;fill-rule:nonzero}
    .fil3 {fill:#914D36;fill-rule:nonzero}
    .fil1 {fill:#934D3A;fill-rule:nonzero}
    .fil7 {fill:#999EAC;fill-rule:nonzero}
    .fil6 {fill:#9F3731;fill-rule:nonzero}
    .fil2 {fill:#B05F3E;fill-rule:nonzero}
    .fil9 {fill:#B3B8C8;fill-rule:nonzero}
    .fil0 {fill:#BB12FF;fill-rule:nonzero}
    .fil8 {fill:#DACFC8;fill-rule:nonzero}
   ]]>
  </style>
 </defs>
 <g id="Capa_x0020_1">
  <metadata id="CorelCorpID_0Corel-Layer"/>
  <path class="fil0" d="M39.24 19.62c0,10.84 -8.78,19.62 -19.62,19.62 -10.84,0 -19.62,-8.78 -19.62,-19.62 0,-10.84 8.78,-19.62 19.62,-19.62 10.84,0 19.62,8.78 19.62,19.62z"/>
  <path class="fil1" d="M12.68 16.68c0,0 -3.02,-10.41 6.58,-10.38 11.15,0.03 10.2,8.6 8.4,11.53 -1.8,2.94 -15.34,3.42 -14.99,-1.15z"/>
  <path class="fil2" d="M7.26 34.86c0.18,-1.6 0.33,-2.71 0.33,-2.71 0.9,-0.49 2.27,-0.85 3.64,-1.09 0.22,-0.04 0.44,-0.07 0.66,-0.11 2.08,-0.31 3.97,-0.4 3.97,-0.4l0.13 -1.39 0.08 -0.83 0.05 -0.56 0.09 -0.94 0.24 -2.44c0.31,-3.23 6.93,-1.84 6.93,-1.84 0,0 0,0.32 0,0.84l0 7.09c0,0.13 1.5,0.22 3.3,0.36 0.2,0.01 0.4,0.03 0.59,0.05 2.16,0.19 4.52,0.45 5.24,0.92 0.33,0.22 0.57,0.93 0.73,1.92 -3.53,3.41 -8.33,5.51 -13.63,5.51 -4.69,0 -8.99,-1.64 -12.36,-4.39z"/>
  <path class="fil3" d="M23.39 23.38l0 2.37c-2.61,2.35 -5.74,2.61 -7.32,2.57l0.15 -1.5 0.24 -2.44c1.37,-1.75 5.53,-1.24 6.93,-1z"/>
  <path class="fil2" d="M13.69 12.15c-0.55,1.1 -0.93,2.89 -1,5.1 -0.22,6.69 3.01,9.14 5.2,9.14 2.25,0 6.99,-0.94 7.72,-7.14 0.37,-3.1 -1.36,-5.85 -2.08,-7.44 -1.49,-3.35 -8.15,-3.04 -9.85,0.35z"/>
  <path class="fil4" d="M15.78 17.67c0,0 -0.58,0.21 -0.49,-0.81 0.08,-0.92 0.49,-0.8 0.49,-0.8 0,0 0.4,-0 0.34,0.8 -0.06,0.8 -0.34,0.8 -0.34,0.8z"/>
  <path class="fil4" d="M21.25 17.81c0,0 -0.58,0.21 -0.49,-0.81 0.08,-0.92 0.49,-0.8 0.49,-0.8 0,0 0.4,-0 0.34,0.8 -0.06,0.81 -0.34,0.8 -0.34,0.8z"/>
  <path class="fil3" d="M18.77 19.88c-0.29,-0.04 -0.96,0.13 -1.1,-0.18 -0.11,-0.26 0.36,-1.82 0.42,-2.08 0.07,-0.29 0.15,-0.55 0.22,-0.81 -0.03,-0.02 -0.05,-0.04 -0.08,-0.05 -0.06,-0.03 -0.12,-0.06 -0.19,-0.07 -0.27,1.07 -0.47,2.18 -0.72,3.19 -0.02,0.09 0.04,0.18 0.14,0.18 0.43,-0.01 0.85,0.08 1.28,0.09 0.14,0 0.18,-0.24 0.03,-0.26z"/>
  <path class="fil5" d="M16.41 14.56c-0.41,-0.21 -1.19,-0.27 -1.49,0.16 -0.05,0.08 0.02,0.2 0.11,0.19 0.2,-0.01 0.39,-0.11 0.59,-0.13 0.22,-0.02 0.44,0.03 0.65,0.1 0.19,0.06 0.32,-0.24 0.14,-0.33z"/>
  <path class="fil5" d="M21.87 14.88c-0.24,-0.59 -1.26,-0.64 -1.7,-0.28 -0.1,0.08 -0.04,0.24 0.07,0.27 0.26,0.08 0.53,-0.02 0.79,0.01 0.23,0.02 0.42,0.12 0.63,0.2 0.11,0.04 0.25,-0.09 0.2,-0.2z"/>
  <path class="fil6" d="M19.47 21.47c-0.41,0.2 -0.71,0.43 -1.19,0.45 -0.37,0.02 -0.77,-0.16 -1.12,-0.04 -0.06,0.02 -0.1,0.09 -0.06,0.14 0.27,0.4 0.97,0.44 1.41,0.4 0.47,-0.04 1.03,-0.21 1.27,-0.65 0.11,-0.21 -0.11,-0.41 -0.31,-0.31z"/>
  <path class="fil2" d="M25.14 17.78c0,0 1.05,-2.77 2.69,-1.3 1.65,1.47 -0.62,5.43 -3.14,5.12 0,0 -0.36,-2.87 0.45,-3.82z"/>
  <path class="fil3" d="M27.02 17.73c-0.36,0.06 -0.74,0.41 -1,0.65 -0.28,0.26 -0.6,0.58 -0.74,0.94 -0.04,0.11 0.11,0.18 0.19,0.11 0.21,-0.2 0.39,-0.44 0.58,-0.65 0.14,0.15 0.29,0.31 0.48,0.38 0.15,0.06 0.27,-0.13 0.2,-0.26 -0.09,-0.16 -0.24,-0.28 -0.4,-0.38 0.26,-0.2 0.58,-0.36 0.8,-0.6 0.08,-0.09 -0,-0.21 -0.11,-0.19z"/>
  <path class="fil7" d="M9.76 36.59c0.01,-0.32 0.01,-0.63 -0,-0.93l0 -0.06c-0.01,-1.01 -0.09,-1.93 -0.25,-2.73 -0.09,-0.47 -0.2,-0.87 -0.34,-1.24 -0.07,-0.18 -0.14,-0.36 -0.23,-0.52 -0.32,-0.63 -0.76,-1.1 -1.33,-1.34 0,0 -0.19,-0.02 -0.52,0.13 -0.32,0.14 -0.79,0.46 -1.36,1.13 -0.12,0.15 -0.25,0.31 -0.39,0.5 -0.19,0.26 -0.39,0.56 -0.59,0.9 1.42,1.65 3.12,3.06 5.01,4.17z"/>
  <path class="fil8" d="M31.52 35.22c0.59,-1.62 1.11,-2.9 1.36,-3.5 0.09,-0.21 0.01,-0.47 -0.19,-0.59 -0.91,-0.56 -3.75,-1.99 -7.67,-2.38 -0.51,1.59 -2.09,4.95 -6.46,4.64 -4.01,-0.28 -5.06,-3.14 -5.32,-4.82 -2.01,0.14 -3.85,0.85 -4.9,1.67 -0.58,0.45 -0.83,2.29 -0.88,4.76 3.34,2.65 7.57,4.23 12.17,4.23 4.47,0 8.6,-1.5 11.9,-4.02z"/>
  <path class="fil9" d="M20.25 31.16c0,0 0,0.02 0.01,0.05 0.01,0.07 0.03,0.22 0.05,0.43 0.07,0.55 0.18,1.55 0.32,2.88 0.01,0.16 0.03,0.32 0.05,0.48 0.13,1.19 0.27,2.6 0.42,4.18 4.41,-0.33 8.41,-2.12 11.53,-4.88 0.28,-0.68 0.54,-1.27 0.76,-1.74 0.07,-0.15 0.14,-0.29 0.19,-0.4 0.03,-0.06 0.06,-0.12 0.08,-0.17 0.06,-0.12 0.12,-0.23 0.16,-0.31 0.05,-0.1 0.09,-0.17 0.1,-0.21 0.01,-0.01 -0.1,-0.15 -0.4,-0.37 -0.05,-0.03 -0.09,-0.06 -0.15,-0.1 -0.5,-0.34 -1.42,-0.82 -3,-1.28 -0.07,-0.03 -0.16,-0.04 -0.23,-0.07 -0.61,-0.17 -1.31,-0.34 -2.12,-0.5 -0.06,-0.01 -0.12,-0.03 -0.18,-0.03 -0.93,-0.18 -2.01,-0.35 -3.23,-0.49 -0.05,-0.01 -0.11,-0.01 -0.17,-0.02 -0.04,-0.01 -0.08,-0.01 -0.12,-0.01l-4.05 2.58z"/>
  <path class="fil9" d="M15.72 38.85c0.2,-1.56 0.41,-2.87 0.6,-3.97 0.03,-0.16 0.06,-0.32 0.09,-0.47 0.23,-1.22 0.45,-2.13 0.62,-2.77 0.05,-0.17 0.08,-0.32 0.12,-0.46 0.14,-0.5 0.23,-0.73 0.23,-0.73l-3.37 -2.02c-0.05,0 -0.09,0.01 -0.13,0.01 -0.06,0 -0.11,0.01 -0.16,0.01 -1.57,0.12 -2.84,0.3 -3.81,0.49 -0.11,0.02 -0.22,0.04 -0.32,0.06 -1.51,0.3 -2.23,0.59 -2.23,0.59 0,0 -0.12,0.06 -0.28,0.29 -0.16,0.23 -0.38,0.6 -0.56,1.22 -0.04,0.14 -0.08,0.29 -0.12,0.45 -0.14,0.58 -0.26,1.32 -0.32,2.27 2.63,2.5 5.94,4.29 9.64,5.03z"/>
  <path class="fil7" d="M34.51 32.4c-0.06,-0.11 -0.12,-0.21 -0.17,-0.3 -0.09,-0.15 -0.16,-0.27 -0.22,-0.36 -0.12,-0.19 -0.19,-0.29 -0.19,-0.29 -0.07,0.07 -0.14,0.14 -0.19,0.2 -0.12,0.12 -0.24,0.25 -0.35,0.37 -0.82,0.91 -1.44,1.87 -1.92,2.84 -0.09,0.18 -0.18,0.37 -0.26,0.55l-0.03 0.07c1.23,-0.9 2.35,-1.93 3.33,-3.08z"/>
  <polygon class="fil10" points="25.83,28.86 23.43,26.98 20.25,31.16 22.15,34.51 "/>
  <polygon class="fil10" points="13.75,28.44 16.25,27.21 17.39,30.46 15.57,33.71 "/>
  <path class="fil11 str0" d="M16.86 17.04c0,0.93 -0.91,1.69 -2.02,1.69 -1.12,0 -2.02,-0.75 -2.02,-1.69 0,-0.93 0.91,-1.69 2.02,-1.69 1.12,0 2.02,0.75 2.02,1.69"/>
  <path class="fil11 str0" d="M23.21 17.04c0,0.93 -0.91,1.69 -2.02,1.69 -1.12,0 -2.02,-0.75 -2.02,-1.69 0,-0.93 0.91,-1.69 2.02,-1.69 1.12,0 2.02,0.75 2.02,1.69"/>
  <line class="fil11 str0" x1="16.86" y1="17.04" x2="19.16" y2= "17.04" />
  <line class="fil11 str1" x1="23.21" y1="17.04" x2="24.64" y2= "17.04" />
  <line class="fil11 str1" x1="28.05" y1="16.12" x2="24.64" y2= "17.04" />
  <line class="fil11 str1" x1="12.18" y1="17.04" x2="12.81" y2= "17.04" />
 </g>
</svg>
