<?xml version="1.0" encoding="UTF-8"?>
<!DOCTYPE svg PUBLIC "-//W3C//DTD SVG 1.1//EN" "http://www.w3.org/Graphics/SVG/1.1/DTD/svg11.dtd">
<!-- Creator: CorelDRAW (Evaluation Version) -->
<svg xmlns="http://www.w3.org/2000/svg" xml:space="preserve" width="7.4792mm" height="8.714mm" version="1.1" style="shape-rendering:geometricPrecision; text-rendering:geometricPrecision; image-rendering:optimizeQuality; fill-rule:evenodd; clip-rule:evenodd"
viewBox="0 0 10.67 12.44"
 xmlns:xlink="http://www.w3.org/1999/xlink"
 xmlns:xodm="http://www.corel.com/coreldraw/odm/2003">
 <defs>
  <style type="text/css">
   <![CDATA[
    .fil0 {fill:#F6F6F6;fill-rule:nonzero}
   ]]>
  </style>
 </defs>
 <g id="Capa_x0020_1">
  <metadata id="CorelCorpID_0Corel-Layer"/>
  <path class="fil0" d="M3.5 1.53l3.68 0c0,-0.06 0,-0.11 -0,-0.16 -0,-0.17 0.01,-0.35 -0,-0.52 -0.01,-0.21 -0.18,-0.37 -0.39,-0.37 -0.97,-0 -1.93,-0 -2.9,0 -0.21,0 -0.38,0.16 -0.38,0.37 -0.01,0.22 -0,0.45 -0,0.68zm1.85 0.48c-1.45,0 -2.9,0 -4.35,0 -0.06,0 -0.12,-0 -0.18,0 -0.19,0.02 -0.33,0.15 -0.35,0.35 -0.01,0.08 -0,0.16 -0,0.25 0,0.4 0.12,0.52 0.52,0.52 2.86,0 5.73,0 8.59,0 0.53,0 0.62,-0.09 0.62,-0.62 -0,-0.38 -0.12,-0.5 -0.5,-0.5 -1.45,0 -2.9,0 -4.35,0zm-3.88 1.59c0,0.04 -0,0.08 0,0.11 0.1,1.21 0.21,2.42 0.31,3.63 0.12,1.39 0.24,2.79 0.36,4.18 0.03,0.31 0.17,0.44 0.48,0.44 1.81,0 3.62,0 5.43,0 0.3,0 0.44,-0.13 0.47,-0.43 0.1,-1.11 0.19,-2.22 0.29,-3.33 0.09,-1.09 0.19,-2.19 0.28,-3.28 0.04,-0.43 0.07,-0.87 0.11,-1.31l-7.73 0zm-0.48 0c-0.11,-0.01 -0.2,-0.01 -0.29,-0.02 -0.37,-0.07 -0.64,-0.36 -0.69,-0.74 -0.02,-0.16 -0.02,-0.33 -0.01,-0.49 0.04,-0.49 0.39,-0.81 0.9,-0.81 0.64,-0 1.28,-0 1.92,-0 0.06,0 0.13,0 0.21,0 0,-0.22 -0,-0.41 0,-0.61 0.01,-0.56 0.36,-0.93 0.92,-0.93 0.92,-0.01 1.85,-0.01 2.77,0 0.56,0 0.91,0.37 0.92,0.93 0,0.2 0,0.39 0,0.61l0.21 0c0.62,0 1.25,-0 1.87,0 0.61,0 0.95,0.35 0.95,0.96 0,0.13 -0,0.25 -0.02,0.38 -0.05,0.38 -0.38,0.69 -0.77,0.72 -0.06,0 -0.13,0 -0.21,0 -0.02,0.27 -0.05,0.52 -0.07,0.78 -0.15,1.77 -0.3,3.55 -0.46,5.32 -0.06,0.65 -0.11,1.3 -0.17,1.94 -0.04,0.45 -0.37,0.76 -0.82,0.79 -0.06,0 -0.12,0.01 -0.18,0.01 -1.77,0 -3.53,0 -5.3,-0 -0.11,-0 -0.23,-0 -0.34,-0.03 -0.35,-0.08 -0.62,-0.37 -0.65,-0.74 -0.08,-0.85 -0.15,-1.71 -0.23,-2.56 -0.11,-1.23 -0.21,-2.46 -0.32,-3.69 -0.05,-0.56 -0.09,-1.11 -0.14,-1.67 -0,-0.04 -0.01,-0.09 -0.01,-0.14z"/>
  <path class="fil0" d="M3.32 7.79c0.06,1.1 0.12,2.19 0.17,3.29 0.01,0.19 -0.08,0.3 -0.22,0.3 -0.14,0 -0.23,-0.08 -0.24,-0.27 -0.04,-0.75 -0.08,-1.5 -0.12,-2.24 -0.07,-1.41 -0.15,-2.82 -0.22,-4.22 -0,-0.08 -0.01,-0.15 -0.01,-0.23 0.01,-0.14 0.08,-0.23 0.22,-0.23 0.14,-0 0.23,0.08 0.24,0.22 0.02,0.33 0.04,0.65 0.06,0.98 0.04,0.8 0.08,1.6 0.12,2.41z"/>
  <path class="fil0" d="M4.82 7.45c0.02,1.42 0.04,2.5 0.06,3.57 0,0.06 0.01,0.12 -0.01,0.18 -0.03,0.12 -0.11,0.19 -0.24,0.18 -0.12,-0.01 -0.19,-0.07 -0.21,-0.19 -0.01,-0.04 -0.01,-0.09 -0.01,-0.13 -0.04,-2.17 -0.08,-4.35 -0.12,-6.52 -0,-0.06 -0,-0.12 0.01,-0.18 0.03,-0.11 0.11,-0.17 0.23,-0.17 0.12,0 0.2,0.07 0.22,0.18 0.01,0.08 0.01,0.15 0.02,0.23 0.02,1.07 0.03,2.13 0.05,2.85z"/>
  <path class="fil0" d="M7.82 7.76c-0.05,1.06 -0.11,2.13 -0.16,3.19 -0,0.07 -0.01,0.13 -0.02,0.2 -0.02,0.15 -0.11,0.24 -0.24,0.23 -0.14,-0.01 -0.23,-0.11 -0.22,-0.27 0.01,-0.26 0.03,-0.52 0.04,-0.79 0.06,-1.19 0.12,-2.38 0.18,-3.57 0.04,-0.76 0.08,-1.52 0.12,-2.28 0.01,-0.21 0.09,-0.3 0.25,-0.3 0.16,0.01 0.23,0.12 0.22,0.33 -0.06,1.08 -0.11,2.16 -0.17,3.24z"/>
  <path class="fil0" d="M6.33 7.79c-0.02,1.1 -0.04,2.2 -0.06,3.29 -0,0.19 -0.08,0.29 -0.23,0.29 -0.15,0 -0.24,-0.11 -0.23,-0.31 0.04,-2.19 0.07,-4.37 0.11,-6.56 0,-0.05 0,-0.1 0.01,-0.15 0.02,-0.12 0.1,-0.18 0.22,-0.19 0.12,-0.01 0.2,0.06 0.23,0.17 0.02,0.07 0.01,0.14 0.01,0.21 -0.02,1.08 -0.04,2.15 -0.06,3.23 0,0 0,0 0,0z"/>
 </g>
</svg>
