<?xml version="1.0" encoding="UTF-8"?>
<!DOCTYPE svg PUBLIC "-//W3C//DTD SVG 1.1//EN" "http://www.w3.org/Graphics/SVG/1.1/DTD/svg11.dtd">
<!-- Creator: CorelDRAW (Evaluation Version) -->
<svg xmlns="http://www.w3.org/2000/svg" xml:space="preserve" width="22.3881mm" height="24.788mm" version="1.1" style="shape-rendering:geometricPrecision; text-rendering:geometricPrecision; image-rendering:optimizeQuality; fill-rule:evenodd; clip-rule:evenodd"
viewBox="0 0 167.54 185.5"
 xmlns:xlink="http://www.w3.org/1999/xlink"
 xmlns:xodm="http://www.corel.com/coreldraw/odm/2003">
 <defs>
  <style type="text/css">
   <![CDATA[
    .str0 {stroke:black;stroke-width:2.64;stroke-miterlimit:10}
    .str1 {stroke:#F3B83A;stroke-width:2.64;stroke-miterlimit:10}
    .fil10 {fill:none;fill-rule:nonzero}
    .fil3 {fill:#201616;fill-rule:nonzero}
    .fil4 {fill:#794549;fill-rule:nonzero}
    .fil9 {fill:#796A80;fill-rule:nonzero}
    .fil2 {fill:#914D36;fill-rule:nonzero}
    .fil0 {fill:#934D3A;fill-rule:nonzero}
    .fil6 {fill:#999EAC;fill-rule:nonzero}
    .fil5 {fill:#9F3731;fill-rule:nonzero}
    .fil1 {fill:#B05F3E;fill-rule:nonzero}
    .fil8 {fill:#B3B8C8;fill-rule:nonzero}
    .fil7 {fill:#DACFC8;fill-rule:nonzero}
   ]]>
  </style>
 </defs>
 <g id="Capa_x0020_1">
  <metadata id="CorelCorpID_0Corel-Layer"/>
  <path class="fil0" d="M44.64 58.46c0,0 -16.99,-58.62 37.07,-58.46 62.78,0.18 57.43,48.39 47.3,64.92 -10.13,16.54 -86.34,19.28 -84.37,-6.46z"/>
  <path class="fil1" d="M14.13 160.8c1,-9.03 1.88,-15.23 1.88,-15.23 5.04,-2.77 12.76,-4.78 20.47,-6.15 1.26,-0.2 2.51,-0.4 3.72,-0.6 11.7,-1.76 22.35,-2.27 22.35,-2.27l0.76 -7.81 0.45 -4.69 0.3 -3.18 0.51 -5.3 1.35 -13.71c1.76,-18.2 39.03,-10.38 39.03,-10.38 0,0 0.01,1.81 0.01,4.74l-0.01 39.94c0,0.71 8.47,1.25 18.56,2.05 1.11,0.05 2.22,0.16 3.33,0.26 12.15,1.06 25.46,2.53 29.49,5.2 1.86,1.23 3.23,5.24 4.12,10.83 -19.87,19.19 -46.91,30.99 -76.72,30.99 -26.39,0 -50.61,-9.26 -69.61,-24.69z"/>
  <path class="fil2" d="M104.96 96.22l0.01 13.34c-14.68,13.22 -32.34,14.68 -41.21,14.45l0.82 -8.43 1.35 -13.71c7.74,-9.88 31.13,-6.98 39.03,-5.64z"/>
  <path class="fil1" d="M50.32 32.96c-3.12,6.21 -5.22,16.26 -5.62,28.69 -1.22,37.64 16.96,51.46 29.28,51.47 12.66,0.01 39.34,-5.33 43.48,-40.23 2.07,-17.45 -7.68,-32.91 -11.7,-41.91 -8.42,-18.86 -45.88,-17.09 -55.44,1.98z"/>
  <path class="fil3" d="M62.09 64.06c0,0 -3.26,1.21 -2.76,-4.55 0.44,-5.18 2.76,-4.48 2.76,-4.48 0,0 2.26,-0.02 1.92,4.51 -0.34,4.53 -1.92,4.52 -1.92,4.52z"/>
  <path class="fil3" d="M92.9 64.82c0,0 -3.26,1.21 -2.76,-4.55 0.44,-5.18 2.76,-4.48 2.76,-4.48 0,0 2.26,-0.02 1.92,4.51 -0.34,4.53 -1.92,4.52 -1.92,4.52z"/>
  <path class="fil2" d="M78.97 76.5c-1.65,-0.25 -5.43,0.74 -6.2,-1.04 -0.65,-1.48 2.01,-10.23 2.38,-11.73 0.41,-1.64 0.82,-3.12 1.23,-4.56 -0.15,-0.1 -0.28,-0.22 -0.44,-0.31 -0.35,-0.19 -0.7,-0.31 -1.05,-0.39 -1.54,6.01 -2.63,12.29 -4.07,17.98 -0.13,0.5 0.25,1.03 0.78,1.02 2.42,-0.04 4.77,0.47 7.18,0.49 0.81,0.01 1.04,-1.33 0.2,-1.45z"/>
  <path class="fil4" d="M65.66 46.56c-2.33,-1.19 -6.69,-1.5 -8.38,0.92 -0.31,0.44 0.1,1.11 0.62,1.08 1.16,-0.06 2.18,-0.62 3.34,-0.72 1.26,-0.1 2.45,0.18 3.64,0.56 1.08,0.34 1.81,-1.33 0.78,-1.85z"/>
  <path class="fil4" d="M96.38 48.37c-1.33,-3.31 -7.1,-3.62 -9.57,-1.57 -0.56,0.47 -0.2,1.35 0.41,1.54 1.44,0.45 2.96,-0.1 4.45,0.04 1.31,0.12 2.35,0.69 3.57,1.12 0.63,0.22 1.4,-0.49 1.14,-1.14z"/>
  <path class="fil5" d="M82.91 85.45c-2.28,1.13 -4.01,2.45 -6.69,2.55 -2.09,0.08 -4.35,-0.91 -6.33,-0.2 -0.31,0.11 -0.54,0.49 -0.33,0.81 1.53,2.25 5.48,2.46 7.95,2.25 2.65,-0.22 5.79,-1.21 7.15,-3.67 0.64,-1.16 -0.62,-2.31 -1.75,-1.75z"/>
  <path class="fil1" d="M114.79 64.66c0,0 5.88,-15.59 15.17,-7.33 9.28,8.26 -3.49,30.57 -17.69,28.83 0,0 -2.01,-16.17 2.52,-21.5z"/>
  <path class="fil2" d="M125.4 64.37c-2.05,0.36 -4.15,2.29 -5.64,3.68 -1.56,1.45 -3.37,3.26 -4.15,5.27 -0.24,0.63 0.64,1.02 1.06,0.62 1.2,-1.12 2.17,-2.46 3.29,-3.67 0.8,0.86 1.61,1.74 2.72,2.15 0.85,0.32 1.49,-0.75 1.11,-1.45 -0.48,-0.91 -1.37,-1.56 -2.25,-2.15 1.48,-1.13 3.25,-2.03 4.48,-3.36 0.47,-0.51 -0,-1.21 -0.64,-1.1z"/>
  <path class="fil6" d="M28.21 170.54c0.03,-1.79 0.03,-3.54 -0,-5.25l0 -0.36c-0.07,-5.69 -0.51,-10.86 -1.42,-15.38 -0.51,-2.63 -1.13,-4.92 -1.93,-7 -0.36,-1.02 -0.8,-2.01 -1.28,-2.92 -1.82,-3.57 -4.3,-6.21 -7.47,-7.56 0,0 -1.06,-0.14 -2.92,0.74 -1.82,0.8 -4.45,2.59 -7.65,6.38 -0.69,0.84 -1.42,1.75 -2.19,2.81 -1.06,1.47 -2.18,3.15 -3.34,5.08 8.01,9.3 17.54,17.25 28.21,23.46z"/>
  <path class="fil7" d="M150.72 162.87c3.3,-9.11 6.25,-16.32 7.66,-19.68 0.51,-1.2 0.04,-2.63 -1.09,-3.32 -5.14,-3.13 -21.11,-11.23 -43.16,-13.38 -2.84,8.93 -11.77,27.89 -36.38,26.14 -22.6,-1.57 -28.47,-17.68 -29.96,-27.12 -11.3,0.77 -21.69,4.79 -27.59,9.38 -3.28,2.56 -4.69,12.89 -4.97,26.8 18.83,14.91 42.63,23.81 68.51,23.81 25.19,0 48.4,-8.44 66.99,-22.63z"/>
  <path class="fil8" d="M87.29 140.02c0,0 0,0.12 0.04,0.3 0.04,0.4 0.15,1.24 0.29,2.44 0.36,3.1 1.02,8.71 1.82,16.22 0.07,0.87 0.18,1.78 0.26,2.7 0.73,6.69 1.52,14.63 2.38,23.5 24.83,-1.85 47.37,-11.92 64.92,-27.49 1.58,-3.85 3.06,-7.18 4.26,-9.79 0.4,-0.84 0.77,-1.61 1.09,-2.26 0.15,-0.36 0.33,-0.69 0.44,-0.98 0.36,-0.69 0.66,-1.31 0.87,-1.75 0.29,-0.58 0.51,-0.98 0.58,-1.17 0.04,-0.07 -0.55,-0.84 -2.26,-2.08 -0.25,-0.18 -0.51,-0.36 -0.84,-0.55 -2.84,-1.9 -8.02,-4.59 -16.91,-7.22 -0.4,-0.15 -0.88,-0.25 -1.31,-0.4 -3.43,-0.98 -7.4,-1.93 -11.96,-2.84 -0.33,-0.07 -0.69,-0.15 -1.02,-0.18 -5.25,-1.02 -11.3,-1.97 -18.19,-2.77 -0.29,-0.04 -0.62,-0.07 -0.95,-0.11 -0.22,-0.03 -0.44,-0.03 -0.69,-0.07l-22.82 14.5z"/>
  <path class="fil8" d="M61.79 183.31c1.12,-8.77 2.3,-16.17 3.38,-22.32 0.18,-0.91 0.36,-1.82 0.51,-2.66 1.31,-6.89 2.55,-11.99 3.5,-15.6 0.26,-0.98 0.47,-1.82 0.69,-2.59 0.8,-2.81 1.32,-4.11 1.32,-4.11l-18.96 -11.38c-0.26,0 -0.51,0.04 -0.73,0.07 -0.33,0 -0.62,0.04 -0.91,0.04 -8.86,0.69 -16,1.71 -21.47,2.77 -0.62,0.11 -1.24,0.22 -1.82,0.33 -8.49,1.71 -12.54,3.32 -12.54,3.32 0,0 -0.66,0.36 -1.57,1.64 -0.91,1.28 -2.11,3.39 -3.17,6.89 -0.22,0.77 -0.44,1.6 -0.69,2.52 -0.77,3.25 -1.45,7.44 -1.81,12.77 14.78,14.1 33.47,24.13 54.27,28.33z"/>
  <path class="fil6" d="M167.54 147c-0.35,-0.62 -0.67,-1.18 -0.96,-1.68 -0.51,-0.84 -0.91,-1.53 -1.24,-2.04 -0.69,-1.1 -1.06,-1.61 -1.06,-1.61 -0.4,0.4 -0.8,0.8 -1.09,1.13 -0.69,0.69 -1.35,1.39 -1.97,2.08 -4.59,5.1 -8.13,10.54 -10.83,15.97 -0.51,1.02 -1.02,2.08 -1.46,3.1l-0.17 0.38c6.91,-5.04 13.21,-10.85 18.77,-17.33z"/>
  <polygon class="fil9" points="118.66,127.03 105.18,116.45 87.29,140.02 97.99,158.88 "/>
  <polygon class="fil9" points="50.68,124.66 64.77,117.74 71.19,136.03 60.94,154.34 "/>
  <path class="fil10 str0" d="M68.18 60.53c0,5.24 -5.1,9.49 -11.39,9.49 -6.29,0 -11.39,-4.25 -11.39,-9.49 0,-5.24 5.1,-9.49 11.39,-9.49 6.29,0 11.39,4.25 11.39,9.49"/>
  <path class="fil10 str0" d="M103.94 60.53c0,5.24 -5.1,9.49 -11.39,9.49 -6.29,0 -11.39,-4.25 -11.39,-9.49 0,-5.24 5.1,-9.49 11.39,-9.49 6.29,0 11.39,4.25 11.39,9.49"/>
  <line class="fil10 str0" x1="68.18" y1="60.53" x2="81.16" y2= "60.53" />
  <line class="fil10 str1" x1="103.94" y1="60.53" x2="111.97" y2= "60.53" />
  <line class="fil10 str1" x1="131.21" y1="55.34" x2="111.97" y2= "60.53" />
  <line class="fil10 str1" x1="41.85" y1="60.53" x2="45.4" y2= "60.53" />
 </g>
</svg>
