<?xml version="1.0" encoding="UTF-8"?>
<!DOCTYPE svg PUBLIC "-//W3C//DTD SVG 1.1//EN" "http://www.w3.org/Graphics/SVG/1.1/DTD/svg11.dtd">
<!-- Creator: CorelDRAW (Evaluation Version) -->
<svg xmlns="http://www.w3.org/2000/svg" xml:space="preserve" width="12.3132mm" height="12.2526mm" version="1.1" style="shape-rendering:geometricPrecision; text-rendering:geometricPrecision; image-rendering:optimizeQuality; fill-rule:evenodd; clip-rule:evenodd"
viewBox="0 0 45.4 45.17"
 xmlns:xlink="http://www.w3.org/1999/xlink"
 xmlns:xodm="http://www.corel.com/coreldraw/odm/2003">
 <defs>
  <style type="text/css">
   <![CDATA[
    .fil2 {fill:#595959;fill-rule:nonzero}
    .fil1 {fill:#757575;fill-rule:nonzero}
    .fil0 {fill:#C3C3C3;fill-rule:nonzero}
   ]]>
  </style>
 </defs>
 <g id="Capa_x0020_1">
  <metadata id="CorelCorpID_0Corel-Layer"/>
  <path class="fil0" d="M3.21 24.04c-0.04,0.2 -0.11,0.4 -0.1,0.59 0.5,9.51 9.28,17.5 19.26,17.53 9.88,0.03 18.79,-8.04 19.38,-17.48 0.09,-1.39 -0.53,-2.25 -1.46,-3.1 -4.63,-4.25 -11.03,-4.45 -15.91,-0.46 -0.78,0.63 -1.44,1.45 -2.61,1.21 -5.32,-5.28 -11.68,-5.55 -17.37,-0.76 -0.79,0.67 -1.58,1.26 -1.18,2.46zm19.36 21.13c-12.61,-0.02 -22.62,-10.14 -22.58,-22.85 0.04,-12.33 10.28,-22.34 22.82,-22.32 12.61,0.02 22.61,10.15 22.57,22.86 -0.04,12.36 -10.24,22.33 -22.82,22.31z"/>
  <path class="fil1" d="M21.77 22.33c1.17,0.23 1.84,-0.58 2.61,-1.21 4.88,-3.99 11.29,-3.78 15.91,0.46 0.92,0.85 1.54,1.72 1.46,3.1 -0.59,9.44 -9.5,17.51 -19.38,17.48 -9.98,-0.03 -18.75,-8.02 -19.26,-17.53 -0.01,-0.2 0.07,-0.39 0.1,-0.59 1.11,0.22 1.95,0.93 2.89,1.49 2.23,1.35 4.59,2.36 7.31,2.17 3.79,-0.26 7.76,-2.78 8.36,-5.37z"/>
  <path class="fil2" d="M21.77 22.33c-0.59,2.59 -4.57,5.11 -8.36,5.37 -2.72,0.18 -5.08,-0.82 -7.31,-2.17 -0.93,-0.56 -1.78,-1.27 -2.89,-1.49 -0.4,-1.2 0.39,-1.8 1.18,-2.46 5.69,-4.79 12.05,-4.52 17.37,0.76z"/>
 </g>
</svg>
