<?xml version="1.0" standalone="no"?>
<!DOCTYPE svg PUBLIC "-//W3C//DTD SVG 20010904//EN"
 "http://www.w3.org/TR/2001/REC-SVG-20010904/DTD/svg10.dtd">
<svg version="1.0" xmlns="http://www.w3.org/2000/svg"
 width="427.000000pt" height="401.000000pt" viewBox="0 0 427.000000 401.000000"
 preserveAspectRatio="xMidYMid meet">
<metadata>
Created by potrace 1.16, written by Peter Selinger 2001-2019
</metadata>
<g transform="translate(0.000000,401.000000) scale(0.100000,-0.100000)"
fill="#000000" stroke="none">
<path d="M1479 2755 c-47 -24 -115 -92 -136 -136 -53 -112 -72 -207 -73 -360
0 -104 8 -123 51 -117 18 2 28 17 46 67 28 79 63 125 113 151 71 36 141 20
206 -47 24 -25 44 -49 44 -54 0 -5 14 -40 31 -78 26 -59 36 -71 61 -76 43 -10
58 8 58 69 0 103 -49 334 -86 405 -8 14 -14 30 -14 35 0 27 -83 116 -131 140
-65 32 -110 32 -170 1z"/>
<path d="M2580 2759 c-24 -11 -53 -28 -63 -37 -40 -36 -89 -124 -119 -214 -25
-77 -31 -114 -35 -218 l-5 -125 24 -14 c42 -22 59 -11 77 49 26 81 59 128 113
156 56 29 89 30 143 5 58 -27 91 -67 130 -157 33 -77 58 -104 97 -104 47 0 47
95 2 300 -46 204 -99 299 -197 353 -59 32 -105 34 -167 6z"/>
<path d="M2899 1411 c-57 -57 -88 -82 -120 -98 -29 -15 -62 -36 -69 -43 -3 -3
-24 -13 -47 -23 -236 -95 -369 -119 -623 -112 -162 5 -253 19 -355 55 -154 54
-255 118 -320 203 -20 26 -40 47 -45 47 -6 0 -19 -9 -31 -21 -16 -16 -20 -28
-14 -55 7 -40 46 -101 78 -123 25 -17 30 -21 72 -55 17 -13 53 -35 80 -50 28
-15 57 -31 65 -36 51 -29 159 -72 245 -96 95 -28 109 -29 300 -29 188 1 206 3
300 29 91 25 237 82 275 106 8 5 33 19 55 31 87 47 208 152 226 197 17 44 5
125 -19 121 -4 -1 -28 -22 -53 -48z"/>
</g>
</svg>
